<?xml version="1.0" encoding="UTF-8"?>
<!-- Created with Inkscape (http://www.inkscape.org/) -->
<svg width="960" height="720" version="1.1" viewBox="0" xmlns="http://www.w3.org/2000/svg"><defs><clipPath id="a"><path d="m0 0h720v540h-720z" clip-rule="evenodd"/></clipPath></defs><g transform="matrix(1.3333 0 0 -1.3333 0 720)"><g transform="matrix(1,0,0,-1,0,540)"><g clip-path="url(#a)"><path d="m0 0h720v540h-720z" fill="#fff" fill-rule="evenodd"/><text transform="translate(620.62 522.35)" fill="#fc0128" font-family="sans-serif" font-size="9.95px" font-weight="bold" xml:space="preserve"><tspan x="0" y="0">CS252/</tspan></text><text transform="translate(657.18 522.35)" fill="#fc0128" font-family="sans-serif" font-size="9.95px" font-weight="bold" xml:space="preserve"><tspan x="0" y="0">Kubiatowicz</tspan></text><text transform="translate(645.18 534.35)" fill="#fc0128" font-family="sans-serif" font-size="9.95px" font-weight="bold" xml:space="preserve"><tspan x="0" y="0">Lec</tspan></text><text transform="translate(665.78 534.35)" fill="#fc0128" font-family="sans-serif" font-size="9.95px" font-weight="bold" xml:space="preserve"><tspan x="0" y="0">4.</tspan></text><text transform="translate(676.22 534.35)" fill="#fc0128" font-family="sans-serif" font-size="9.95px" font-weight="bold" xml:space="preserve"><tspan x="0" y="0">24</tspan></text><path d="m19 365h100v2h-100z"/><path d="m606.75 120v54.75h-174.75v-54.75zm-173.75 2 1-1v52.75l-1-1h172.75l-1 1v-52.75l1 1h-172.75"/><text transform="translate(371.98 144.55)" fill="#000000" font-family="sans-serif" font-size="15.95px" xml:space="preserve"><tspan x="0" y="0">A</tspan></text><text transform="translate(689.98 156.55)" fill="#000000" font-family="sans-serif" font-size="15.95px" xml:space="preserve"><tspan x="0" y="0">D</tspan></text><path d="m679 147v6l6-3zm-68 6v-6l-6 3zm69.5-4h-71v2h71v-2"/><text transform="translate(599.98 84.55)" fill="#000000" font-family="sans-serif" font-size="15.95px" xml:space="preserve"><tspan x="0" y="0">OE_L</tspan></text><path d="m573 113h6l-3 6zm4-40v41.5h-2v-41.5h2" fill="#00ae00"/><path d="m425 153v-6l6 3zm-58-4h59.5v2h-59.5v-2"/><text transform="translate(492.02 144.55)" fill="#000000" font-family="sans-serif" font-size="15.95px" font-weight="bold" xml:space="preserve"><tspan x="0" y="0">256K x 8</tspan></text><text transform="translate(497.38 163.75)" fill="#000000" font-family="sans-serif" font-size="15.95px" font-weight="bold" xml:space="preserve"><tspan x="0" y="0">DRAM</tspan></text><path d="m402.1 138.2-13 17 0.794 0.608 13-17-0.794-0.608"/><path d="m648.1 138.2-13 17 0.794 0.608 13-17-0.794-0.608"/><text transform="translate(383.98 168.58)" fill="#000000" font-family="sans-serif" font-size="14.05px" xml:space="preserve"><tspan x="0" y="0">9</tspan></text><text transform="translate(629.98 168.58)" fill="#000000" font-family="sans-serif" font-size="14.05px" xml:space="preserve"><tspan x="0" y="0">8</tspan></text><text transform="translate(533.98 84.55)" fill="#000000" font-family="sans-serif" font-size="15.95px" xml:space="preserve"><tspan x="0" y="0">WE_L</tspan></text><path d="m591 113h6l-3 6zm4-40v41.5h-2v-41.5h2" fill="#00ae00"/><text transform="translate(467.98 84.55)" fill="#000000" font-family="sans-serif" font-size="15.95px" xml:space="preserve"><tspan x="0" y="0">CAS_L</tspan></text><path d="m441 113h6l-3 6zm4-40v41.5h-2v-41.5h2" fill="#00ae00"/><text transform="translate(389.98 84.55)" fill="#000000" font-family="sans-serif" font-size="15.95px" xml:space="preserve"><tspan x="0" y="0">RAS_L</tspan></text><path d="m459 113h6l-3 6zm4-40v41.5h-2v-41.5h2" fill="#00ae00"/><path d="m565 383h76v2h-76z" fill="#0f0"/><path d="m655 365h46v2h-46z"/><text transform="translate(17.975,384.55)" fill="#000000" font-family="sans-serif" font-size="15.95px" font-weight="bold" xml:space="preserve"><tspan x="0" y="0">OE_L</tspan></text><path d="m19 287h16v2h-16z"/><path d="m19 311h16v2h-16z"/><path d="m37.91 288.59 10 22-1.82 0.828-10-22 1.82-0.828"/><path d="m37.933 313.36 10-26-1.866-0.718-10 26 1.866 0.718"/><text transform="translate(17.975,306.55)" fill="#000000" font-family="sans-serif" font-size="15.95px" font-weight="bold" xml:space="preserve"><tspan x="0" y="0">A</tspan></text><path d="m49 287h100v2h-100z"/><path d="m49 311h100v2h-100z"/><path d="m151.91 288.59 10 22-1.82 0.828-10-22 1.82-0.828"/><path d="m151.93 313.36 10-26-1.866-0.718-10 26 1.866 0.718"/><path d="m289 287h58v2h-58z"/><path d="m289 311h58v2h-58z"/><path d="m79 335h622v2h-622z"/><g transform="translate(-3)"><text transform="translate(53.975,306.55)" fill="#000000" font-family="sans-serif" font-size="15.95px" font-weight="bold" xml:space="preserve"><tspan x="0" y="0">Row Address</tspan></text></g><text transform="translate(17.975,348.55)" fill="#000000" font-family="sans-serif" font-size="15.95px" font-weight="bold" xml:space="preserve"><tspan x="0" y="0">WE_L</tspan></text><text transform="translate(299.98 306.55)" fill="#000000" font-family="sans-serif" font-size="15.95px" font-weight="bold" xml:space="preserve"><tspan x="0" y="0">Junk</tspan></text><path d="m91 181v8h-2v-8zm0 14v8h-2v-8zm0 14v8h-2v-8zm0 14v8h-2v-8zm0 14v8h-2v-8zm0 14v8h-2v-8zm0 14v8h-2v-8zm0 14v8h-2v-8zm0 14v8h-2v-8zm0 14v8h-2v-8zm0 14v8h-2v-8zm0 14v8h-2v-8zm0 14v8h-2v-8zm0 14v8h-2v-8zm0 14v8h-2v-8zm0 14v8h-2v-8zm0 14v8h-2v-8zm0 14v8h-2v-8zm0 14v8h-2v-8zm0 14v8h-2v-8zm0 14v8h-2v-8zm0 14v8h-2v-8h2"/><text transform="translate(102.42 444.55)" fill="#000000" font-family="sans-serif" font-size="15.95px" font-weight="bold" xml:space="preserve"><tspan x="0" y="0">Read Access</tspan></text><text transform="translate(126.78 463.75)" fill="#000000" font-family="sans-serif" font-size="15.95px" font-weight="bold" xml:space="preserve"><tspan x="0" y="0">Time</tspan></text><text transform="translate(429.48 444.55)" fill="#000000" font-family="sans-serif" font-size="15.95px" font-weight="bold" xml:space="preserve"><tspan x="0" y="0">Output Enable</tspan></text><text transform="translate(460.88 463.75)" fill="#000000" font-family="sans-serif" font-size="15.95px" font-weight="bold" xml:space="preserve"><tspan x="0" y="0">Delay</tspan></text><path d="m19 251h166v2h-166z"/><path d="m187.85 252.47 10 16-1.696 1.06-10-16 1.696-1.06" fill="#0f0"/><path d="m199 269h130v2h-130z" fill="#0f0"/><path d="m331.89 271.45 10-20-1.788-0.894-10 20 1.788 0.894" fill="#0f0"/><path d="m343 251h154v2h-154z"/><text transform="translate(17.975,270.55)" fill="#000000" font-family="sans-serif" font-size="15.95px" font-weight="bold" xml:space="preserve"><tspan x="0" y="0">CAS_L</tspan></text><path d="m19 209h64v2h-64z"/><path d="m85.848 210.47 10 16-1.696 1.06-10-16 1.696-1.06"/><path d="m97 227h232v2h-232z"/><path d="m331.89 229.45 10-20-1.788-0.894-10 20 1.788 0.894"/><path d="m343 209h52v2h-52z"/><text transform="translate(17.975,228.55)" fill="#000000" font-family="sans-serif" font-size="15.95px" font-weight="bold" xml:space="preserve"><tspan x="0" y="0">RAS_L</tspan></text><path d="m397.85 210.47 10 16-1.696 1.06-10-16 1.696-1.06"/><path d="m409 227h232v2h-232z"/><path d="m643.89 229.45 10-20-1.788-0.894-10 20 1.788 0.894"/><path d="m655 209h46v2h-46z"/><g transform="translate(-6)"><text transform="translate(179.98 306.55)" fill="#000000" font-family="sans-serif" font-size="15.95px" font-weight="bold" xml:space="preserve"><tspan x="0" y="0">Col Address</tspan></text></g><path d="m277.91 288.59 10 22-1.82 0.828-10-22 1.82-0.828"/><path d="m277.93 313.36 10-26-1.866-0.718-10 26 1.866 0.718"/><path d="m163 311h112v2h-112z"/><path d="m163 287h112v2h-112z"/><path d="m349.91 288.59 10 22-1.82 0.828-10-22 1.82-0.828"/><path d="m349.93 313.36 10-26-1.866-0.718-10 26 1.866 0.718"/><path d="m361 287h100v2h-100z"/><path d="m361 311h100v2h-100z"/><path d="m463.91 288.59 10 22-1.82 0.828-10-22 1.82-0.828"/><path d="m463.93 313.36 10-26-1.866-0.718-10 26 1.866 0.718"/><g transform="translate(-4.5)"><text transform="translate(365.98 306.55)" fill="#000000" font-family="sans-serif" font-size="15.95px" font-weight="bold" xml:space="preserve"><tspan x="0" y="0">Row Address</tspan></text></g><g transform="translate(-6)" fill="#000000" font-family="sans-serif" font-size="15.95px" font-weight="bold"><text transform="translate(617.98 306.55)" xml:space="preserve"><tspan x="0" y="0">Junk</tspan></text><text transform="translate(491.98 306.55)" xml:space="preserve"><tspan x="0" y="0">Col Address</tspan></text></g><path d="m589.91 288.59 10 22-1.82 0.828-10-22 1.82-0.828"/><path d="m589.93 313.36 10-26-1.866-0.718-10 26 1.866 0.718"/><path d="m475 311h112v2h-112z"/><path d="m475 287h112v2h-112z"/><path d="m499.85 252.47 10 16-1.696 1.06-10-16 1.696-1.06" fill="#0f0"/><path d="m511 269h130v2h-130z" fill="#0f0"/><path d="m643.89 271.45 10-20-1.788-0.894-10 20 1.788 0.894" fill="#0f0"/><path d="m655 251h46v2h-46z"/><path d="m193 247v8h-2v-8zm0 14v8h-2v-8zm0 14v8h-2v-8zm0 14v8h-2v-8zm0 14v8h-2v-8zm0 14v8h-2v-8zm0 14v8h-2v-8zm0 14v8h-2v-8zm0 14v8h-2v-8zm0 14v8h-2v-8zm0 14v8h-2v-8zm0 14v8h-2v-8zm0 14v8h-2v-8zm0 14v8h-2v-8zm0 14v8h-2v-8h2"/><path d="m283 277v8h-2v-8zm0 14v8h-2v-8zm0 14v8h-2v-8zm0 14v8h-2v-8h2"/><path d="m403 181v8h-2v-8zm0 14v8h-2v-8zm0 14v8h-2v-8zm0 14v8h-2v-8zm0 14v8h-2v-8zm0 14v8h-2v-8zm0 14v8h-2v-8zm0 14v8h-2v-8zm0 14v8h-2v-8zm0 14v8h-2v-8zm0 14v8h-2v-8zm0 14v8h-2v-8zm0 14v8h-2v-8zm0 14v8h-2v-8zm0 14v8h-2v-8zm0 14v8h-2v-8zm0 14v8h-2v-8zm0 14v8h-2v-8zm0 14v8h-2v-8zm0 14v8h-2v-8zm0 14v8h-2v-8zm0 14v8h-2v-8h2"/><path d="m505 247v8h-2v-8zm0 14v8h-2v-8zm0 14v8h-2v-8zm0 14v8h-2v-8zm0 14v8h-2v-8zm0 14v8h-2v-8h2"/><path d="m595 277v8h-2v-8zm0 14v8h-2v-8zm0 14v8h-2v-8zm0 14v8h-2v-8h2"/><path d="m601 287h58v2h-58z"/><path d="m601 311h58v2h-58z"/><path d="m661.91 288.59 10 22-1.82 0.828-10-22 1.82-0.828"/><path d="m661.93 313.36 10-26-1.866-0.718-10 26 1.866 0.718"/><path d="m337 247v8h-2v-8zm0 14v8h-2v-8zm0 14v8h-2v-8zm0 14v8h-2v-8zm0 14v8h-2v-8zm0 14v8h-2v-8zm0 14v8h-2v-8zm0 14v8h-2v-8zm0 14v8h-2v-8zm0 14v8h-2v-8zm0 14v8h-2v-8zm0 14v8h-2v-8zm0 14v8h-2v-8zm0 14v8h-2v-8zm0 14v8h-2v-8zm0 14v8h-2v-8zm0 14v8h-2v-8h2"/><path d="m649 247v8h-2v-8zm0 14v8h-2v-8zm0 14v8h-2v-8zm0 14v8h-2v-8zm0 14v8h-2v-8zm0 14v8h-2v-8zm0 14v8h-2v-8zm0 14v8h-2v-8zm0 14v8h-2v-8zm0 14v8h-2v-8zm0 14v8h-2v-8zm0 14v8h-2v-8zm0 14v8h-2v-8zm0 14v8h-2v-8zm0 14v8h-2v-8zm0 14v8h-2v-8zm0 14v8h-2v-8h2"/><path d="m673 287h28v2h-28z"/><path d="m673 311h28v2h-28z"/><path d="m67.894 355.45 10-20-1.788-0.894-10 20 1.788 0.894"/><path d="m67 353h-50v2h50v-2"/><path d="m331.89 385.45 10-20-1.788-0.894-10 20 1.788 0.894" fill="#0f0"/><path d="m157 277v8h-2v-8zm0 14v8h-2v-8zm0 14v8h-2v-8zm0 14v8h-2v-8h2"/><path d="m43 277v8h-2v-8zm0 14v8h-2v-8zm0 14v8h-2v-8zm0 14v8h-2v-8h2"/><path d="m643.89 385.45 10-20-1.788-0.894-10 20 1.788 0.894" fill="#0f0"/><path d="m553.85 366.47 10 16-1.696 1.06-10-16 1.696-1.06" fill="#0f0"/><path d="m343 365h208v2h-208z"/><path d="m133 383h196v2h-196z" fill="#0f0"/><path d="m121.85 366.47 10 16-1.696 1.06-10-16 1.696-1.06" fill="#0f0"/><text transform="translate(17.975,420.55)" fill="#000000" font-family="sans-serif" font-size="15.95px" font-weight="bold" xml:space="preserve"><tspan x="0" y="0">D</tspan></text><path d="m19 401h118v2h-118z"/><path d="m19 425h118v2h-118z"/><path d="m139.91 402.59 10 22-1.82 0.828-10-22 1.82-0.828"/><path d="m139.93 427.36 10-26-1.866-0.718-10 26 1.866 0.718"/><path d="m259 401h88v2h-88z"/><path d="m259 425h88v2h-88z"/><text transform="translate(59.975,420.55)" fill="#000000" font-family="sans-serif" font-size="15.95px" font-weight="bold" xml:space="preserve"><tspan x="0" y="0">High Z</tspan></text><path d="m247.91 402.59 10 22-1.82 0.828-10-22 1.82-0.828"/><path d="m247.93 427.36 10-26-1.866-0.718-10 26 1.866 0.718"/><path d="m151 425h94v2h-94z"/><path d="m151 401h94v2h-94z"/><path d="m253 391v8h-2v-8zm0 14v8h-2v-8zm0 14v8h-2v-8zm0 14v8h-2v-8zm0 14v8h-2v-8h2"/><path d="m349.91 402.59 10 22-1.82 0.828-10-22 1.82-0.828"/><path d="m349.93 427.36 10-26-1.866-0.718-10 26 1.866 0.718"/><path d="m361 425h208v2h-208z"/><path d="m361 401h208v2h-208z"/><path d="m571.91 402.59 10 22-1.82 0.828-10-22 1.82-0.828"/><path d="m571.93 427.36 10-26-1.866-0.718-10 26 1.866 0.718"/><path d="m577 397v8h-2v-8zm0 14v8h-2v-8zm0 14v8h-2v-8zm0 14v8h-2v-8zm0 14v8h-2v-8h2"/><path d="m559 355v8h-2v-8zm0 14v8h-2v-8zm0 14v8h-2v-8zm0 14v8h-2v-8zm0 14v8h-2v-8zm0 14v8h-2v-8zm0 14v8h-2v-8zm0 14v2h-2v-2h2"/><path d="m583 401h118v2h-118z"/><path d="m583 425h118v2h-118z"/><g transform="translate(-36)"><text transform="translate(647.98 420.55)" fill="#000000" font-family="sans-serif" font-size="15.95px" font-weight="bold" xml:space="preserve"><tspan x="0" y="0">Data Out</tspan></text></g><path d="m247 447v6l6-3zm-50 6v-6l-6 3zm51.5-4h-53v2h53v-2" fill="#0f0"/><g transform="translate(-7.5)"><text transform="translate(161.98 198.55)" fill="#000000" font-family="sans-serif" font-size="15.95px" font-weight="bold" xml:space="preserve"><tspan x="0" y="0">DRAM Read Cycle Time</tspan></text></g><path d="m397 189v6l6-3zm1.5 2h-63.5v2h63.5v-2"/><path d="m97 189v6l-6-3zm-1.5 2h59.5v2h-59.5v-2"/><path d="m44 322h44v4h-44z" fill="#618ffd"/><path d="m158 322h32v4h-32z" fill="#618ffd"/><path d="m470 322h32v4h-32z" fill="#618ffd"/><path d="m469 277v8h-2v-8zm0 14v8h-2v-8zm0 14v8h-2v-8zm0 14v8h-2v-8h2"/><path d="m355 277v8h-2v-8zm0 14v8h-2v-8zm0 14v8h-2v-8zm0 14v8h-2v-8h2"/><path d="m356 322h44v4h-44z" fill="#618ffd"/><path d="m92 322h62v4h-62z" fill="#fc0128"/><path d="m194 322h86v4h-86z" fill="#fc0128"/><path d="m506 322h86v4h-86z" fill="#fc0128"/><path d="m404 322h62v4h-62z" fill="#fc0128"/><path d="m97 471v6l-6-3zm232 6v-6l6 3zm-233.5-4h235v2h-235v-2"/><text transform="translate(17.975,504.55)" fill="#000000" font-family="sans-serif" font-size="15.95px" font-weight="bold" xml:space="preserve"><tspan x="0" y="0">Early Read Cycle: OE_L asserted before CAS_L</tspan></text><path d="m409 471v6l-6-3zm232 6v-6l6 3zm-233.5-4h235v2h-235v-2"/><text transform="translate(383.98 504.55)" fill="#000000" font-family="sans-serif" font-size="15.95px" font-weight="bold" xml:space="preserve"><tspan x="0" y="0">Late Read Cycle: OE_L asserted after CAS_L</tspan></text><text transform="translate(173.98 420.55)" fill="#000000" font-family="sans-serif" font-size="15.95px" font-weight="bold" xml:space="preserve"><tspan x="0" y="0">Junk</tspan></text><text transform="translate(269.98 420.55)" fill="#000000" font-family="sans-serif" font-size="15.95px" font-weight="bold" xml:space="preserve"><tspan x="0" y="0">Data Out</tspan></text><text transform="translate(449.98 420.55)" fill="#000000" font-family="sans-serif" font-size="15.95px" font-weight="bold" xml:space="preserve"><tspan x="0" y="0">High Z</tspan></text><path d="m551 453v-6l6 3zm-34-4h35.5v2h-35.5v-2"/><path d="m581 453v-6l-6 3zm38-4h-39.5v2h39.5v-2"/><path d="m193 449h-26v2h26v-2"/><text transform="translate(192.9,42.15)" fill="#fc0128" font-family="sans-serif" font-size="36px" font-weight="bold" xml:space="preserve"><tspan x="0" y="0">DRAM Read Timing</tspan></text></g></g></g></svg>
