<?xml version="1.0" encoding="UTF-8" standalone="no"?>
<svg
   width="960"
   height="720"
   version="1.1"
   viewBox="0 0 960 720"
   id="svg327"
   sodipodi:docname="mod-Lec12-multiproc2.svg"
   inkscape:version="1.2.1 (9c6d41e410, 2022-07-14, custom)"
   xmlns:inkscape="http://www.inkscape.org/namespaces/inkscape"
   xmlns:sodipodi="http://sodipodi.sourceforge.net/DTD/sodipodi-0.dtd"
   xmlns="http://www.w3.org/2000/svg"
   xmlns:svg="http://www.w3.org/2000/svg">
  <sodipodi:namedview
     id="namedview329"
     pagecolor="#ffffff"
     bordercolor="#666666"
     borderopacity="1.0"
     inkscape:showpageshadow="2"
     inkscape:pageopacity="0.0"
     inkscape:pagecheckerboard="0"
     inkscape:deskcolor="#d1d1d1"
     showgrid="false"
     inkscape:zoom="0.94992769"
     inkscape:cx="488.98459"
     inkscape:cy="330.55148"
     inkscape:window-width="1866"
     inkscape:window-height="1046"
     inkscape:window-x="54"
     inkscape:window-y="0"
     inkscape:window-maximized="1"
     inkscape:current-layer="g321" />
  <defs
     id="defs15">
    <clipPath
       id="c">
      <path
         d="m0 0h720v540h-720z"
         clip-rule="evenodd"
         id="path2" />
    </clipPath>
    <clipPath
       id="b">
      <path
         d="m260.7 395.46 6.354-3.984 0.807 8.346zm-6.732 43.133-0.649 0.271-0.672 0.261-0.679 0.245-0.687 0.228-0.694 0.211-0.702 0.194-0.708 0.177-0.715 0.159-0.721 0.141-0.727 0.123-0.733 0.105-0.739 0.086-0.744 0.068-0.749 0.048-0.755 0.029-0.758 0.01-0.751-9e-3 -0.746-0.029-0.742-0.047-0.737-0.067-0.731-0.084-0.725-0.103-0.72-0.12-0.714-0.139-0.708-0.155-0.701-0.173-0.695-0.19-0.687-0.207-0.68-0.223-0.673-0.24-0.665-0.255-0.657-0.272-0.649-0.287-0.641-0.302-0.632-0.317-0.623-0.333-0.614-0.347-0.605-0.361-0.595-0.376-0.586-0.389-0.575-0.403-0.565-0.417-0.555-0.43-0.544-0.443-0.534-0.456-0.522-0.468-0.511-0.481-0.499-0.493-0.488-0.504-0.475-0.517-0.463-0.527-0.451-0.539-0.438-0.55-0.426-0.561-0.412-0.571-0.398-0.581-0.386-0.592-0.371-0.601-0.357-0.611-0.343-0.62-0.329-0.629-0.314-0.639-0.298-0.647-0.284-0.655-0.268-0.664-0.253-0.671-0.237-0.679-0.22-0.687-0.204-0.694-0.188-0.701-0.171-0.708-0.154-0.715-0.136-0.72-0.12-0.727-0.101-0.733-0.083-0.738-0.066-0.743-0.047-0.749-0.028-0.753-9e-3 -0.758 9e-3 -0.758 0.028-0.753 0.047-0.749 0.066-0.743 0.083-0.738 0.101-0.733 0.12-0.726 0.136-0.721 0.154-0.714 0.171-0.708 0.188-0.701 0.204-0.694 0.22-0.687 0.237-0.679 0.253-0.672 0.268-0.664 0.284-0.655 0.298-0.647 0.314-0.638 0.329-0.63 0.343-0.62 0.357-0.611 0.371-0.601 0.386-0.591 0.398-0.582 0.412-0.571 0.426-0.561 0.438-0.549 0.451-0.539 0.463-0.528 0.475-0.516 0.488-0.505 0.499-0.493 0.511-0.481 0.522-0.468 0.534-0.456 0.544-0.443 0.555-0.43 0.565-0.416 0.575-0.404 0.586-0.389 0.595-0.376 0.605-0.361 0.614-0.347 0.623-0.332 0.632-0.318 0.641-0.302 0.649-0.287 0.657-0.271 0.665-0.256 0.673-0.24 0.68-0.223 0.687-0.206 0.695-0.19 0.701-0.173 0.708-0.156 0.714-0.138 0.72-0.121 0.725-0.103 0.731-0.084 0.737-0.066 0.742-0.048 0.746-0.028 0.748-0.01 0.552 5e-3 0.552 0.016 1.081 0.06 1.075 0.101 1.064 0.14 1.052 0.178 1.038 0.216 1.025 0.253 1.011 0.289 0.995 0.324 0.979 0.36 0.962 0.393 0.945 0.426 0.927 0.459 0.907 0.491 0.889 0.522 0.867 0.552 0.847 0.582 0.825 0.61 0.803 0.639 0.779 0.666 0.756 0.693 0.731 0.719 0.706 0.744 0.724 0.819 1.292 1.963-2.088 1.375-1.244-1.889 0.108 0.141-0.651-0.736 0.03 0.032-0.676-0.713 0.03 0.031-0.7-0.688 0.032 0.03-0.723-0.664 0.032 0.029-0.746-0.637 0.034 0.027-0.768-0.611 0.034 0.027-0.789-0.585 0.035 0.026-0.81-0.557 0.037 0.024-0.831-0.528 0.038 0.023-0.85-0.499 0.039 0.022-0.869-0.47 0.04 0.021-0.886-0.439 0.04 0.019-0.904-0.408 0.042 0.018-0.921-0.376 0.042 0.016-0.936-0.344 0.043 0.015-0.952-0.31 0.044 0.013-0.966-0.276 0.044 0.012-0.98-0.242 0.045 0.01-0.993-0.206 0.045 8e-3 -1.006-0.17 0.046 7e-3 -1.018-0.134 0.047 5e-3 -1.029-0.096 0.046 3e-3 -1.039-0.058 0.035 1e-3 -0.524-0.014h0.024l-0.526-5e-3h0.028l-0.719 9e-3 0.032-1e-3 -0.715 0.028 0.032-2e-3 -0.709 0.046 0.032-3e-3 -0.705 0.064 0.032-4e-3 -0.7 0.081 0.032-4e-3 -0.695 0.098 0.032-5e-3 -0.689 0.116 0.031-6e-3 -0.682 0.132 0.03-6e-3 -0.676 0.149 0.03-7e-3 -0.67 0.165 0.03-8e-3 -0.664 0.182 0.03-9e-3 -0.657 0.198 0.03-0.01-0.651 0.214 0.03-0.01-0.644 0.229 0.029-0.011-0.636 0.245 0.029-0.012-0.629 0.26 0.029-0.012-0.621 0.274 0.028-0.013-0.613 0.29 0.028-0.014-0.605 0.304 0.027-0.014-0.596 0.318 0.027-0.015-0.588 0.332 0.026-0.015-0.578 0.346 0.025-0.016-0.569 0.359 0.025-0.016-0.56 0.372 0.025-0.017-0.551 0.386 0.024-0.017-0.541 0.399 0.024-0.018-0.531 0.411 0.024-0.018-0.521 0.424 0.023-0.019-0.511 0.436 0.022-0.02-0.499 0.449 0.021-0.021-0.489 0.461 0.022-0.021-0.478 0.472 0.021-0.021-0.467 0.483 0.02-0.022-0.455 0.495 0.02-0.023-0.444 0.506 0.02-0.023-0.432 0.516 0.019-0.023-0.42 0.527 0.019-0.024-0.408 0.537 0.018-0.024-0.395 0.547 0.018-0.025-0.382 0.557 0.016-0.025-0.368 0.567 0.016-0.026-0.356 0.576 0.016-0.026-0.343 0.585 0.015-0.026-0.328 0.594 0.014-0.026-0.315 0.602 0.014-0.027-0.3 0.611 0.013-0.027-0.286 0.62 0.012-0.028-0.272 0.627 0.012-0.028-0.257 0.636 0.011-0.029-0.241 0.643 0.01-0.028-0.227 0.65 0.01-0.029-0.211 0.657 9e-3 -0.029-0.196 0.665 9e-3 -0.03-0.18 0.671 7e-3 -0.03-0.163 0.678 7e-3 -0.03-0.148 0.684 7e-3 -0.03-0.131 0.69 5e-3 -0.031-0.114 0.696 5e-3 -0.03-0.097 0.701 3e-3 -0.031-0.08 0.707 4e-3 -0.031-0.063 0.713 2e-3 -0.031-0.045 0.717 2e-3 -0.031-0.027 0.722 1e-3 -0.032-9e-3 0.727v-0.031l9e-3 0.726-1e-3 -0.031 0.027 0.722-2e-3 -0.031 0.045 0.717-2e-3 -0.031 0.063 0.712-4e-3 -0.031 0.08 0.707-3e-3 -0.031 0.097 0.702-5e-3 -0.031 0.114 0.696-5e-3 -0.031 0.131 0.691-7e-3 -0.031 0.148 0.684-7e-3 -0.03 0.163 0.678-7e-3 -0.03 0.18 0.671-9e-3 -0.029 0.196 0.664-9e-3 -0.029 0.211 0.657-0.01-0.029 0.227 0.651-0.01-0.029 0.241 0.643-0.011-0.028 0.257 0.635-0.012-0.028 0.272 0.627-0.012-0.027 0.286 0.619-0.013-0.027 0.3 0.611-0.014-0.027 0.315 0.603-0.014-0.027 0.328 0.594-0.015-0.026 0.343 0.585-0.016-0.026 0.356 0.576-0.016-0.025 0.368 0.566-0.016-0.025 0.382 0.557-0.018-0.025 0.395 0.547-0.018-0.024 0.408 0.537-0.019-0.023 0.42 0.526-0.019-0.023 0.432 0.516-0.02-0.022 0.444 0.505-0.02-0.022 0.455 0.494-0.02-0.021 0.467 0.483-0.021-0.021 0.478 0.471-0.022-0.02 0.489 0.46-0.021-0.02 0.499 0.448-0.022-0.019 0.511 0.436-0.023-0.019 0.521 0.424-0.024-0.019 0.531 0.412-0.024-0.018 0.541 0.399-0.024-0.018 0.551 0.386-0.025-0.017 0.56 0.373-0.025-0.017 0.569 0.36-0.025-0.016 0.578 0.346-0.026-0.016 0.588 0.332-0.027-0.014 0.596 0.318-0.027-0.014 0.605 0.303-0.028-0.013 0.613 0.289-0.028-0.013 0.621 0.275-0.029-0.012 0.629 0.259-0.029-0.011 0.636 0.244-0.029-0.011 0.644 0.23-0.03-0.011 0.651 0.214-0.03-9e-3 0.657 0.197-0.03-8e-3 0.664 0.181-0.03-8e-3 0.67 0.166-0.03-7e-3 0.676 0.148-0.03-6e-3 0.682 0.132-0.031-5e-3 0.689 0.115-0.032-5e-3 0.695 0.098-0.032-4e-3 0.7 0.081-0.032-3e-3 0.705 0.063-0.032-2e-3 0.709 0.045-0.032-2e-3 0.715 0.028-0.032-1e-3 0.719 9e-3h-0.033l0.727-9e-3 -0.032 1e-3 0.721-0.028-0.032 1e-3 0.717-0.046-0.032 2e-3 0.712-0.064-0.032 3e-3 0.707-0.082-0.032 4e-3 0.701-0.1-0.032 4e-3 0.696-0.117-0.031 5e-3 0.689-0.135-0.031 7e-3 0.684-0.152-0.031 7e-3 0.677-0.169-0.031 8e-3 0.671-0.185-0.03 9e-3 0.664-0.202-0.031 9e-3 0.657-0.218-0.029 0.01 0.649-0.233-0.029 0.01 0.642-0.249-0.029 0.012 0.635-0.266 0.964 2.307"
         id="path5" />
    </clipPath>
    <linearGradient
       id="a"
       x1="213.44"
       x2="214.57"
       y1="440.95"
       y2="381.14"
       gradientUnits="userSpaceOnUse">
      <stop
         stop-color="#909"
         offset="0"
         id="stop8" />
      <stop
         stop-color="#909"
         offset=".25"
         id="stop10" />
      <stop
         stop-color="#f00"
         offset="1"
         id="stop12" />
    </linearGradient>
  </defs>
  <g
     transform="matrix(1.3333 0 0 -1.3333 0 720)"
     id="g325">
    <g
       transform="matrix(1,0,0,-1,0,540)"
       id="g323">
      <g
         clip-path="url(#c)"
         id="g321">
        <path
           d="m0 0h720v540h-720z"
           fill="#fff"
           fill-rule="evenodd"
           id="path17" />
        <text
           transform="translate(625.6,522.35)"
           fill="#fc0128"
           font-size="9.95px"
           font-weight="bold"
           xml:space="preserve"
           id="text21"><tspan
             id="tspan19">CS252/Patterson</tspan></text>
        <text
           transform="translate(642.25,534.35)"
           fill="#fc0128"
           font-size="9.95px"
           font-weight="bold"
           xml:space="preserve"
           id="text25"><tspan
             id="tspan23">Lec</tspan></text>
        <text
           transform="translate(662.85,534.35)"
           fill="#fc0128"
           font-size="9.95px"
           font-weight="bold"
           xml:space="preserve"
           id="text29"><tspan
             id="tspan27">12.</tspan></text>
        <text
           transform="translate(679.4,534.35)"
           fill="#fc0128"
           font-size="9.95px"
           font-weight="bold"
           xml:space="preserve"
           id="text33"><tspan
             id="tspan31">10</tspan></text>
        <text
           transform="translate(7.2 528.32)"
           fill="#fc0128"
           font-size="9.95px"
           font-weight="bold"
           xml:space="preserve"
           id="text37"><tspan
             id="tspan35">2/28/01</tspan></text>
        <path
           d="m377.76 165.24h142.2v50.28h-142.2z"
           fill="#fff"
           fill-rule="evenodd"
           id="path39" />
        <text
           transform="translate(384.85,185.85)"
           fill="#000000"
           font-size="18px"
           xml:space="preserve"
           id="text43"><tspan
             id="tspan41">Place read miss</tspan></text>
        <text
           transform="translate(458.85,207.45)"
           fill="#000000"
           font-size="18px"
           xml:space="preserve"
           id="text47"><tspan
             id="tspan45">on bus</tspan></text>
        <text
           transform="translate(132.25,65.35)"
           fill="#fc0128"
           font-size="30px"
           font-weight="bold"
           xml:space="preserve"
           id="text51"><tspan
             id="tspan49">Snoopy-Cache State Machine-III </tspan></text>
        <text
           transform="translate(7.1,104.05)"
           fill="#000000"
           font-size="20.05px"
           xml:space="preserve"
           id="text55"><tspan
             id="tspan53">•</tspan></text>
        <text
           transform="translate(29.6,104.05)"
           fill="#000000"
           font-size="20.05px"
           font-weight="bold"
           xml:space="preserve"
           id="text59"><tspan
             id="tspan57">State machine</tspan></text>
        <text
           transform="translate(29.6,123.25)"
           fill="#000000"
           font-size="20.05px"
           font-weight="bold"
           xml:space="preserve"
           id="text63"><tspan
             id="tspan61">for </tspan></text>
        <text
           transform="translate(61.8,123.25)"
           fill="#fc0128"
           font-size="20.05px"
           font-style="italic"
           font-weight="bold"
           xml:space="preserve"
           id="text67"><tspan
             id="tspan65">CPU</tspan></text>
        <text
           transform="translate(109.6,123.25)"
           fill="#000000"
           font-size="20.05px"
           font-weight="bold"
           xml:space="preserve"
           id="text71"><tspan
             id="tspan69">requests</tspan></text>
        <path
           d="m61.8 127.45h42.25"
           fill="none"
           stroke="#fc0128"
           stroke-linejoin="bevel"
           stroke-miterlimit="2"
           stroke-width=".96"
           id="path73" />
        <text
           transform="translate(29.6,142.45)"
           fill="#000000"
           font-size="20.05px"
           font-weight="bold"
           xml:space="preserve"
           id="text77"><tspan
             id="tspan75">for each </tspan></text>
        <text
           transform="translate(112.85,142.45)"
           fill="#990099"
           font-size="20.05px"
           font-weight="bold"
           xml:space="preserve"
           id="text81"><tspan
             id="tspan79">cache block</tspan></text>
        <path
           d="m112.85 146.65h114.3"
           fill="none"
           stroke="#909"
           stroke-linejoin="bevel"
           stroke-miterlimit="2"
           stroke-width=".96"
           id="path83" />
        <text
           transform="translate(29.6,161.65)"
           fill="#000000"
           font-size="20.05px"
           xml:space="preserve"
           id="text87"><tspan
             id="tspan85">and</tspan></text>
        <text
           transform="translate(29.6,180.85)"
           fill="#000000"
           font-size="20.05px"
           font-weight="bold"
           xml:space="preserve"
           id="text91"><tspan
             id="tspan89">for </tspan></text>
        <text
           transform="translate(61.8,180.85)"
           fill="#0fefea"
           font-size="20.05px"
           font-style="italic"
           font-weight="bold"
           xml:space="preserve"
           id="text95"><tspan
             id="tspan93">bus</tspan></text>
        <text
           transform="translate(102.85,180.85)"
           fill="#000000"
           font-size="20.05px"
           font-weight="bold"
           xml:space="preserve"
           id="text99"><tspan
             id="tspan97">requests</tspan></text>
        <path
           d="m61.8 185.05h35.5"
           fill="none"
           stroke="#0fefea"
           stroke-linejoin="bevel"
           stroke-miterlimit="2"
           stroke-width=".96"
           id="path101" />
        <text
           transform="translate(29.6,200.05)"
           fill="#000000"
           font-size="20.05px"
           font-weight="bold"
           xml:space="preserve"
           id="text105"><tspan
             id="tspan103">for each </tspan></text>
        <text
           transform="translate(112.85,200.05)"
           fill="#00ae00"
           font-size="20.05px"
           font-weight="bold"
           xml:space="preserve"
           id="text109"><tspan
             id="tspan107">cache block</tspan></text>
        <path
           d="m112.85 204.25h114.3"
           fill="none"
           stroke="#00ae00"
           stroke-linejoin="bevel"
           stroke-miterlimit="2"
           stroke-width=".96"
           id="path111" />
        <path
           d="m220.56 82.56h0.48v0.48h-0.48z"
           fill="#fff"
           fill-rule="evenodd"
           id="path113" />
        <path
           d="m279.6 145.32h66.24v28.68h-66.24z"
           fill="#fff"
           fill-rule="evenodd"
           id="path115" />
        <text
           transform="translate(286.72 165.95)"
           fill="#000000"
           font-size="18px"
           xml:space="preserve"
           id="text119"><tspan
             id="tspan117">Invalid</tspan></text>
        <path
           d="m531.36 133.2h101.52v50.28h-101.52z"
           fill="#fff"
           fill-rule="evenodd"
           id="path121" />
        <text
           transform="translate(553.12 153.85)"
           fill="#000000"
           font-size="18px"
           xml:space="preserve"
           id="text125"><tspan
             id="tspan123">Shared</tspan></text>
        <text
           transform="translate(539.12 175.45)"
           fill="#000000"
           font-size="18px"
           xml:space="preserve"
           id="text129"><tspan
             id="tspan127">(read/only)</tspan></text>
        <path
           d="m258 411.12h109.32v50.28h-109.32z"
           fill="#fff"
           fill-rule="evenodd"
           id="path131" />
        <text
           transform="translate(274.65,431.7)"
           fill="#000000"
           font-size="18px"
           xml:space="preserve"
           id="text135"><tspan
             id="tspan133">Exclusive</tspan></text>
        <text
           transform="translate(267.15,453.3)"
           fill="#000000"
           font-size="18px"
           xml:space="preserve"
           id="text139"><tspan
             id="tspan137">(read/write)</tspan></text>
        <path
           d="m378 142.44h101.28v28.56h-101.28z"
           fill="#fff"
           fill-rule="evenodd"
           id="path141" />
        <text
           transform="translate(385.1,163)"
           fill="#990099"
           font-size="18px"
           font-weight="bold"
           xml:space="preserve"
           id="text145"><tspan
             id="tspan143">CPU Read</tspan></text>
        <path
           d="m335.16 198.96h102.24v28.68h-102.24z"
           fill="#fff"
           fill-rule="evenodd"
           id="path147" />
        <text
           transform="translate(342.25,219.6)"
           fill="#fc0128"
           font-size="18px"
           font-weight="bold"
           xml:space="preserve"
           id="text151"><tspan
             id="tspan149">CPU Write</tspan></text>
        <path
           d="m554.88 71.52h128.28v28.68h-128.28z"
           fill="#fff"
           fill-rule="evenodd"
           id="path153" />
        <text
           transform="translate(561.98 92.15)"
           fill="#990099"
           font-size="18px"
           font-weight="bold"
           xml:space="preserve"
           id="text157"><tspan
             id="tspan155">CPU Read hit</tspan></text>
        <text
           transform="translate(318.95,238.15)"
           fill="#000000"
           font-size="18px"
           font-weight="bold"
           xml:space="preserve"
           id="text161"><tspan
             id="tspan159">Place Write </tspan></text>
        <text
           transform="translate(318.95,259.75)"
           fill="#000000"
           font-size="18px"
           font-weight="bold"
           xml:space="preserve"
           id="text165"><tspan
             id="tspan163">Miss on bus</tspan></text>
        <path
           d="m556.44 245.16h147.24v71.88h-147.24z"
           fill="#fff"
           fill-rule="evenodd"
           id="path167" />
        <text
           transform="translate(563.58 265.8)"
           fill="#990099"
           font-size="18px"
           font-weight="bold"
           xml:space="preserve"
           id="text171"><tspan
             id="tspan169">CPU Read miss</tspan></text>
        <text
           transform="translate(563.58 287.4)"
           fill="#000000"
           font-size="18px"
           xml:space="preserve"
           id="text175"><tspan
             id="tspan173">Place read miss </tspan></text>
        <text
           transform="translate(563.58 309)"
           fill="#000000"
           font-size="18px"
           xml:space="preserve"
           id="text179"><tspan
             id="tspan177">on bus</tspan></text>
        <path
           d="m395.4 450h218.28v71.88h-218.28z"
           fill="#fff"
           fill-rule="evenodd"
           id="path181" />
        <text
           transform="translate(402.48 470.55)"
           fill="#fc0128"
           font-size="18px"
           font-weight="bold"
           xml:space="preserve"
           id="text185"><tspan
             id="tspan183">CPU Write Miss</tspan></text>
        <text
           transform="translate(402.48 492.15)"
           fill="#000000"
           font-size="18px"
           xml:space="preserve"
           id="text189"><tspan
             id="tspan187">Write back cache block</tspan></text>
        <text
           transform="translate(402.48 513.75)"
           fill="#000000"
           font-size="18px"
           font-weight="bold"
           xml:space="preserve"
           id="text193"><tspan
             id="tspan191">Place write miss on bus</tspan></text>
        <text
           transform="translate(138.82 458.35)"
           fill="#990099"
           font-size="18px"
           font-weight="bold"
           xml:space="preserve"
           id="text199"><tspan
             id="tspan197">CPU read hit</tspan></text>
        <text
           transform="translate(138.82 479.95)"
           fill="#fc0128"
           font-size="18px"
           font-weight="bold"
           xml:space="preserve"
           id="text203"><tspan
             id="tspan201">CPU write hit</tspan></text>
        <text
           transform="translate(65.875 401.38)"
           fill="#000000"
           font-size="24px"
           font-weight="bold"
           xml:space="preserve"
           id="text207"><tspan
             id="tspan205">Cache Block</tspan></text>
        <text
           transform="translate(65.875 430.18)"
           fill="#000000"
           font-size="24px"
           font-weight="bold"
           xml:space="preserve"
           id="text211"><tspan
             id="tspan209">State</tspan></text>
        <path
           d="m256.52 159.12 1e-3 -0.027 0.054-1.359 1e-3 -0.026 0.089-1.351 2e-3 -0.026 0.124-1.341 3e-3 -0.026 0.159-1.332 3e-3 -0.026 0.193-1.321 4e-3 -0.026 0.227-1.31 4e-3 -0.026 0.26-1.299 5e-3 -0.026 0.293-1.288 6e-3 -0.025 0.324-1.276 7e-3 -0.025 0.356-1.264 8e-3 -0.025 0.388-1.251 8e-3 -0.024 0.419-1.238 8e-3 -0.024 0.45-1.225 9e-3 -0.024 0.48-1.21 9e-3 -0.024 0.51-1.196 0.01-0.023 0.539-1.181 0.01-0.023 0.568-1.166 0.011-0.023 0.596-1.15 0.012-0.022 0.624-1.135 0.012-0.021 0.652-1.119 0.013-0.021 0.678-1.101 0.014-0.021 0.705-1.084 0.014-0.02 0.731-1.067 0.014-0.02 0.758-1.048 0.014-0.019 0.783-1.03 0.015-0.019 0.808-1.011 0.015-0.019 0.833-0.991 0.015-0.018 0.857-0.972 0.016-0.018 0.88-0.951 0.016-0.017 0.904-0.931 0.016-0.017 0.927-0.91 0.017-0.017 0.948-0.888 0.018-0.016 0.97-0.866 0.018-0.016 0.992-0.844 0.018-0.015 1.013-0.822 0.018-0.015 1.034-0.798 0.019-0.014 1.054-0.775 0.019-0.014 1.073-0.751 0.02-0.013 1.092-0.727 0.02-0.013 1.112-0.702 0.02-0.012 1.13-0.677 0.021-0.012 1.148-0.651 0.02-0.011 1.166-0.625 0.021-0.011 1.183-0.599 0.021-0.011 1.2-0.571 0.021-0.01 1.216-0.545 0.022-9e-3 1.231-0.517 0.022-9e-3 1.247-0.489 0.023-8e-3 1.262-0.46 0.022-8e-3 1.277-0.432 0.022-7e-3 1.291-0.402 0.023-7e-3 1.304-0.372 0.023-6e-3 1.318-0.342 0.023-6e-3 1.331-0.312 0.023-5e-3 1.343-0.28 0.023-5e-3 1.355-0.249 0.024-4e-3 1.366-0.217 0.024-3e-3 1.377-0.185 0.024-3e-3 1.388-0.152 0.024-3e-3 1.398-0.119 0.024-2e-3 1.408-0.085 0.024-1e-3 1.418-0.052 0.024-1e-3 1.426-0.017h0.024l1.426 0.017 0.024 1e-3 1.418 0.052 0.024 1e-3 1.408 0.085 0.024 2e-3 1.398 0.119 0.024 3e-3 1.388 0.152 0.024 3e-3 1.377 0.185 0.024 3e-3 1.366 0.217 0.024 4e-3 1.355 0.249 0.023 5e-3 1.343 0.28 0.023 5e-3 1.331 0.312 0.023 6e-3 1.318 0.342 0.023 6e-3 1.304 0.372 0.023 7e-3 1.291 0.402 0.022 7e-3 1.277 0.432 0.022 8e-3 1.262 0.46 0.023 8e-3 1.247 0.489 0.022 9e-3 1.231 0.517 0.022 9e-3 1.216 0.545 0.021 0.01 1.2 0.571 0.021 0.011 1.183 0.599 0.021 0.011 1.166 0.625 0.02 0.011 1.148 0.651 0.021 0.012 1.13 0.677 0.02 0.012 1.112 0.702 0.019 0.013 1.093 0.727 0.02 0.013 1.073 0.751 0.019 0.014 1.054 0.775 0.019 0.014 1.033 0.798 0.019 0.015 1.013 0.822 0.018 0.015 0.992 0.844 0.018 0.016 0.97 0.866 0.018 0.016 0.948 0.888 0.017 0.017 0.927 0.91 0.016 0.017 0.904 0.931 0.016 0.017 0.88 0.951 0.016 0.018 0.857 0.972 0.015 0.018 0.833 0.991 0.015 0.019 0.808 1.011 0.015 0.019 0.783 1.03 0.014 0.019 0.758 1.048 0.014 0.02 0.731 1.067 0.014 0.02 0.705 1.084 0.014 0.021 0.678 1.101 0.013 0.021 0.652 1.119 0.012 0.021 0.624 1.135 0.012 0.022 0.596 1.15 0.011 0.023 0.567 1.166 0.011 0.023 0.539 1.181 0.01 0.023 0.51 1.196 9e-3 0.024 0.48 1.21 9e-3 0.024 0.45 1.225 8e-3 0.024 0.419 1.238 8e-3 0.024 0.388 1.251 7e-3 0.025 0.357 1.264 7e-3 0.025 0.324 1.276 6e-3 0.025 0.293 1.288 5e-3 0.026 0.26 1.299 4e-3 0.026 0.227 1.31 4e-3 0.026 0.193 1.321 3e-3 0.026 0.159 1.332 2e-3 0.026 0.125 1.341 2e-3 0.026 0.089 1.351 1e-3 0.026 0.054 1.359 1e-3 0.027 0.018 1.368v0.026l-0.018 1.368-1e-3 0.027-0.054 1.359-1e-3 0.026-0.089 1.351-2e-3 0.026-0.125 1.341-2e-3 0.026-0.159 1.332-3e-3 0.026-0.193 1.321-4e-3 0.026-0.227 1.31-4e-3 0.026-0.26 1.299-5e-3 0.026-0.293 1.288-6e-3 0.025-0.324 1.276-7e-3 0.025-0.357 1.264-7e-3 0.025-0.388 1.251-8e-3 0.024-0.419 1.238-8e-3 0.024-0.45 1.225-9e-3 0.024-0.48 1.21-9e-3 0.024-0.51 1.196-0.01 0.023-0.539 1.181-0.011 0.023-0.567 1.166-0.011 0.023-0.596 1.15-0.012 0.022-0.624 1.135-0.012 0.021-0.652 1.119-0.013 0.021-0.678 1.101-0.014 0.021-0.705 1.084-0.014 0.02-0.731 1.067-0.014 0.02-0.758 1.048-0.014 0.019-0.783 1.03-0.015 0.019-0.808 1.011-0.015 0.019-0.833 0.991-0.015 0.018-0.857 0.972-0.016 0.018-0.88 0.951-0.016 0.017-0.904 0.931-0.016 0.017-0.927 0.91-0.017 0.016-0.948 0.889-0.018 0.016-0.97 0.866-0.018 0.016-0.992 0.844-0.018 0.015-1.013 0.822-0.019 0.015-1.033 0.798-0.019 0.014-1.054 0.775-0.019 0.014-1.073 0.751-0.02 0.013-1.093 0.727-0.019 0.013-1.112 0.702-0.02 0.012-1.13 0.677-0.021 0.012-1.148 0.651-0.02 0.011-1.166 0.625-0.021 0.011-1.183 0.599-0.021 0.01-1.2 0.572-0.021 0.01-1.216 0.545-0.022 9e-3 -1.231 0.517-0.022 9e-3 -1.247 0.489-0.023 8e-3 -1.262 0.46-0.022 8e-3 -1.277 0.432-0.022 7e-3 -1.291 0.402-0.023 7e-3 -1.304 0.372-0.023 6e-3 -1.318 0.342-0.023 6e-3 -1.331 0.311-0.023 6e-3 -1.343 0.28-0.023 5e-3 -1.355 0.249-0.024 4e-3 -1.366 0.217-0.024 3e-3 -1.377 0.185-0.024 3e-3 -1.388 0.152-0.024 3e-3 -1.398 0.119-0.024 2e-3 -1.408 0.085-0.024 1e-3 -1.418 0.052-0.024 1e-3 -1.426 0.017h-0.024l-1.426-0.017-0.024-1e-3 -1.418-0.052-0.024-1e-3 -1.408-0.085-0.024-2e-3 -1.398-0.119-0.024-3e-3 -1.388-0.152-0.024-3e-3 -1.377-0.185-0.024-3e-3 -1.366-0.217-0.024-4e-3 -1.355-0.249-0.023-5e-3 -1.343-0.28-0.023-6e-3 -1.331-0.311-0.023-6e-3 -1.318-0.342-0.023-6e-3 -1.304-0.372-0.023-7e-3 -1.291-0.402-0.022-7e-3 -1.277-0.432-0.022-8e-3 -1.262-0.46-0.023-8e-3 -1.247-0.489-0.022-9e-3 -1.231-0.517-0.022-9e-3 -1.216-0.545-0.021-0.01-1.2-0.572-0.021-0.01-1.183-0.599-0.021-0.011-1.166-0.625-0.02-0.011-1.148-0.651-0.021-0.012-1.13-0.677-0.02-0.012-1.112-0.702-0.02-0.013-1.092-0.727-0.02-0.013-1.073-0.751-0.019-0.014-1.054-0.775-0.019-0.014-1.034-0.798-0.018-0.015-1.013-0.822-0.018-0.015-0.992-0.844-0.018-0.016-0.97-0.866-0.018-0.016-0.948-0.889-0.017-0.016-0.927-0.91-0.016-0.017-0.904-0.931-0.016-0.017-0.88-0.951-0.016-0.018-0.857-0.972-0.015-0.018-0.833-0.991-0.015-0.019-0.808-1.011-0.015-0.019-0.783-1.03-0.014-0.019-0.758-1.048-0.014-0.02-0.731-1.067-0.014-0.02-0.705-1.084-0.014-0.021-0.678-1.101-0.013-0.021-0.652-1.119-0.012-0.021-0.624-1.135-0.012-0.022-0.596-1.15-0.011-0.023-0.568-1.166-0.01-0.023-0.539-1.181-0.01-0.023-0.51-1.196-9e-3 -0.024-0.48-1.21-9e-3 -0.024-0.45-1.225-8e-3 -0.024-0.419-1.238-8e-3 -0.024-0.388-1.251-8e-3 -0.025-0.356-1.264-7e-3 -0.025-0.324-1.276-6e-3 -0.025-0.293-1.288-5e-3 -0.026-0.26-1.299-4e-3 -0.026-0.227-1.31-4e-3 -0.026-0.193-1.321-3e-3 -0.026-0.159-1.332-3e-3 -0.026-0.124-1.341-2e-3 -0.026-0.089-1.351-1e-3 -0.026-0.054-1.359-1e-3 -0.027-0.018-1.368v-0.026zm1.982 1.394v-0.026l0.018 1.368-1e-3 -0.027 0.054 1.36-1e-3 -0.027 0.089 1.351-2e-3 -0.026 0.124 1.341-3e-3 -0.026 0.159 1.331-4e-3 -0.026 0.193 1.321-4e-3 -0.026 0.226 1.311-4e-3 -0.026 0.259 1.299-5e-3 -0.025 0.292 1.288-6e-3 -0.025 0.325 1.276-7e-3 -0.025 0.356 1.264-7e-3 -0.025 0.388 1.251-8e-3 -0.024 0.419 1.238-8e-3 -0.024 0.449 1.224-9e-3 -0.023 0.48 1.21-0.01-0.023 0.51 1.196-0.01-0.023 0.538 1.181-0.01-0.022 0.567 1.166-0.011-0.022 0.596 1.15-0.011-0.022 0.624 1.135-0.013-0.022 0.652 1.119-0.013-0.022 0.679 1.102-0.013-0.021 0.705 1.084-0.013-0.02 0.731 1.066-0.014-0.02 0.758 1.048-0.015-0.019 0.783 1.029-0.015-0.019 0.808 1.011-0.015-0.018 0.832 0.991-0.015-0.018 0.856 0.971-0.016-0.018 0.88 0.952-0.016-0.017 0.903 0.93-0.017-0.017 0.926 0.91-0.017-0.016 0.948 0.888-0.017-0.016 0.97 0.867-0.018-0.016 0.992 0.844-0.018-0.015 1.013 0.822-0.019-0.015 1.034 0.798-0.019-0.014 1.053 0.775-0.019-0.014 1.074 0.751-0.02-0.013 1.093 0.727-0.02-0.013 1.112 0.702-0.02-0.013 1.13 0.677-0.021-0.012 1.148 0.651-0.021-0.011 1.166 0.625-0.021-0.011 1.183 0.599-0.021-0.011 1.199 0.572-0.021-0.01 1.215 0.544-0.021-9e-3 1.231 0.517-0.022-9e-3 1.247 0.489-0.022-9e-3 1.262 0.46-0.023-7e-3 1.277 0.431-0.023-8e-3 1.291 0.402-0.023-6e-3 1.304 0.372-0.023-7e-3 1.317 0.342-0.023-5e-3 1.33 0.311-0.023-5e-3 1.343 0.28-0.024-4e-3 1.355 0.249-0.024-4e-3 1.366 0.217-0.024-4e-3 1.377 0.185-0.024-3e-3 1.388 0.152-0.024-2e-3 1.398 0.119-0.024-2e-3 1.407 0.086-0.024-1e-3 1.417 0.051h-0.024l1.426 0.017h-0.024l1.426-0.017h-0.024l1.417-0.051-0.025 1e-3 1.408-0.086-0.024 2e-3 1.398-0.119-0.024 2e-3 1.388-0.152-0.024 3e-3 1.377-0.185-0.024 4e-3 1.366-0.217-0.024 4e-3 1.355-0.249-0.024 4e-3 1.343-0.28-0.023 5e-3 1.33-0.311-0.023 5e-3 1.317-0.342-0.023 7e-3 1.304-0.372-0.023 6e-3 1.291-0.402-0.023 8e-3 1.277-0.431-0.023 7e-3 1.262-0.46-0.022 9e-3 1.247-0.489-0.022 9e-3 1.231-0.517-0.021 9e-3 1.215-0.544-0.021 0.01 1.199-0.572-0.021 0.011 1.183-0.599-0.021 0.011 1.165-0.625-0.02 0.011 1.148-0.651-0.021 0.012 1.13-0.677-0.02 0.013 1.112-0.702-0.02 0.013 1.093-0.727-0.02 0.013 1.074-0.751-0.02 0.014 1.054-0.775-0.019 0.014 1.034-0.798-0.019 0.015 1.013-0.822-0.018 0.015 0.992-0.844-0.018 0.016 0.97-0.867-0.017 0.016 0.948-0.888-0.017 0.016 0.926-0.91-0.017 0.017 0.903-0.93-0.016 0.017 0.88-0.952-0.016 0.018 0.856-0.971-0.015 0.018 0.832-0.991-0.015 0.018 0.808-1.011-0.015 0.019 0.783-1.029-0.015 0.019 0.758-1.048-0.014 0.02 0.731-1.066-0.013 0.02 0.705-1.084-0.013 0.021 0.679-1.102-0.013 0.022 0.652-1.119-0.013 0.022 0.624-1.135-0.011 0.022 0.596-1.15-0.011 0.022 0.567-1.166-0.01 0.022 0.538-1.181-0.01 0.023 0.51-1.196-0.01 0.023 0.48-1.21-9e-3 0.023 0.449-1.224-8e-3 0.024 0.419-1.238-8e-3 0.024 0.388-1.251-7e-3 0.025 0.356-1.264-7e-3 0.025 0.325-1.276-6e-3 0.025 0.292-1.288-5e-3 0.025 0.259-1.299-4e-3 0.026 0.226-1.311-4e-3 0.026 0.193-1.321-4e-3 0.026 0.159-1.331-3e-3 0.026 0.124-1.341-2e-3 0.026 0.089-1.351-1e-3 0.027 0.054-1.36-1e-3 0.027 0.018-1.368v0.026l-0.018-1.368 1e-3 0.027-0.054-1.36 1e-3 0.027-0.089-1.351 2e-3 0.026-0.124-1.341 3e-3 0.026-0.159-1.331 4e-3 0.026-0.193-1.321 4e-3 0.026-0.226-1.311 4e-3 0.026-0.259-1.3 5e-3 0.026-0.292-1.288 6e-3 0.025-0.325-1.276 7e-3 0.025-0.356-1.264 7e-3 0.025-0.388-1.251 8e-3 0.024-0.419-1.238 8e-3 0.024-0.449-1.225 9e-3 0.024-0.48-1.21 0.01 0.023-0.51-1.196 0.01 0.023-0.538-1.182 0.01 0.023-0.567-1.166 0.011 0.022-0.596-1.15 0.011 0.022-0.624-1.135 0.013 0.022-0.652-1.119 0.013 0.022-0.679-1.102 0.013 0.021-0.705-1.084 0.013 0.02-0.731-1.066 0.014 0.02-0.758-1.048 0.015 0.019-0.783-1.03 0.015 0.02-0.808-1.011 0.015 0.018-0.832-0.991 0.015 0.018-0.856-0.971 0.016 0.017-0.88-0.951 0.016 0.017-0.903-0.93 0.017 0.016-0.926-0.909 0.017 0.016-0.948-0.888 0.017 0.016-0.97-0.867 0.018 0.016-0.992-0.844 0.018 0.015-1.013-0.822 0.019 0.015-1.034-0.799 0.019 0.015-1.054-0.775 0.02 0.014-1.074-0.751 0.02 0.013-1.093-0.727 0.02 0.013-1.112-0.702 0.02 0.013-1.13-0.677 0.021 0.012-1.148-0.651 0.02 0.011-1.165-0.625 0.021 0.011-1.183-0.599 0.021 0.011-1.199-0.572 0.021 0.01-1.215-0.545 0.021 0.01-1.231-0.517 0.022 9e-3 -1.247-0.489 0.022 9e-3 -1.262-0.461 0.023 8e-3 -1.277-0.431 0.023 7e-3 -1.291-0.401 0.023 6e-3 -1.304-0.372 0.023 7e-3 -1.317-0.343 0.023 6e-3 -1.33-0.311 0.023 5e-3 -1.343-0.28 0.024 4e-3 -1.355-0.249 0.024 4e-3 -1.366-0.217 0.024 4e-3 -1.377-0.185 0.024 3e-3 -1.388-0.152 0.024 2e-3 -1.398-0.119 0.024 2e-3 -1.408-0.086 0.025 1e-3 -1.417-0.051h0.024l-1.426-0.017h0.024l-1.426 0.017h0.024l-1.417 0.051 0.024-1e-3 -1.407 0.086 0.024-2e-3 -1.398 0.119 0.024-2e-3 -1.388 0.152 0.024-3e-3 -1.377 0.185 0.024-4e-3 -1.366 0.217 0.024-4e-3 -1.355 0.249 0.024-4e-3 -1.343 0.28 0.023-5e-3 -1.33 0.311 0.023-6e-3 -1.317 0.343 0.023-7e-3 -1.304 0.372 0.023-6e-3 -1.291 0.401 0.023-7e-3 -1.277 0.431 0.023-8e-3 -1.262 0.461 0.022-9e-3 -1.247 0.489 0.022-9e-3 -1.231 0.517 0.021-0.01-1.215 0.545 0.021-0.01-1.199 0.572 0.021-0.011-1.183 0.599 0.021-0.011-1.166 0.625 0.021-0.011-1.148 0.651 0.021-0.012-1.13 0.677 0.02-0.013-1.112 0.702 0.02-0.013-1.093 0.727 0.02-0.013-1.074 0.751 0.019-0.014-1.053 0.775 0.019-0.015-1.034 0.799 0.019-0.015-1.013 0.822 0.018-0.015-0.992 0.844 0.018-0.016-0.97 0.867 0.017-0.016-0.948 0.888 0.017-0.016-0.926 0.909 0.017-0.016-0.903 0.93 0.016-0.017-0.88 0.951 0.016-0.017-0.856 0.971 0.015-0.018-0.832 0.991 0.015-0.018-0.808 1.011 0.015-0.02-0.783 1.03 0.015-0.019-0.758 1.048 0.014-0.02-0.731 1.066 0.013-0.02-0.705 1.084 0.013-0.021-0.679 1.102 0.013-0.022-0.652 1.119 0.013-0.022-0.624 1.135 0.011-0.022-0.596 1.15 0.011-0.022-0.567 1.166 0.01-0.023-0.538 1.182 0.01-0.023-0.51 1.196 0.01-0.023-0.48 1.21 9e-3 -0.024-0.449 1.225 8e-3 -0.024-0.419 1.238 8e-3 -0.024-0.388 1.251 7e-3 -0.025-0.356 1.264 7e-3 -0.025-0.325 1.276 6e-3 -0.025-0.292 1.288 5e-3 -0.026-0.259 1.3 4e-3 -0.026-0.226 1.311 4e-3 -0.026-0.193 1.321 4e-3 -0.026-0.159 1.331 3e-3 -0.026-0.124 1.341 2e-3 -0.026-0.089 1.351 1e-3 -0.027-0.054 1.36 1e-3 -0.027-0.018 1.368"
           id="path213" />
        <path
           d="m523.52 159.12 1e-3 -0.027 0.054-1.359 1e-3 -0.026 0.089-1.351 2e-3 -0.026 0.124-1.341 3e-3 -0.026 0.159-1.332 3e-3 -0.026 0.193-1.321 4e-3 -0.026 0.227-1.31 4e-3 -0.026 0.26-1.299 5e-3 -0.026 0.293-1.288 6e-3 -0.025 0.324-1.276 7e-3 -0.025 0.356-1.264 8e-3 -0.025 0.388-1.251 8e-3 -0.024 0.419-1.238 8e-3 -0.024 0.45-1.225 9e-3 -0.024 0.48-1.21 9e-3 -0.024 0.51-1.196 0.01-0.023 0.539-1.181 0.01-0.023 0.568-1.166 0.011-0.023 0.596-1.15 0.012-0.022 0.624-1.135 0.012-0.021 0.652-1.119 0.013-0.021 0.678-1.101 0.014-0.021 0.705-1.084 0.014-0.02 0.731-1.067 0.014-0.02 0.758-1.048 0.014-0.019 0.783-1.03 0.015-0.019 0.808-1.011 0.015-0.019 0.833-0.991 0.015-0.018 0.857-0.972 0.016-0.018 0.88-0.951 0.016-0.017 0.904-0.931 0.016-0.017 0.927-0.91 0.017-0.017 0.948-0.888 0.018-0.016 0.97-0.866 0.018-0.016 0.992-0.844 0.018-0.015 1.013-0.822 0.019-0.015 1.033-0.798 0.019-0.014 1.054-0.775 0.019-0.014 1.073-0.751 0.02-0.013 1.092-0.727 0.02-0.013 1.112-0.702 0.02-0.012 1.13-0.677 0.021-0.012 1.148-0.651 0.02-0.011 1.166-0.625 0.021-0.011 1.183-0.599 0.021-0.011 1.2-0.571 0.021-0.01 1.216-0.545 0.022-9e-3 1.231-0.517 0.022-9e-3 1.247-0.489 0.023-8e-3 1.262-0.46 0.022-8e-3 1.277-0.432 0.022-7e-3 1.291-0.402 0.023-7e-3 1.304-0.372 0.023-6e-3 1.318-0.342 0.023-6e-3 1.331-0.312 0.023-5e-3 1.343-0.28 0.023-5e-3 1.355-0.249 0.024-4e-3 1.366-0.217 0.024-3e-3 1.377-0.185 0.024-3e-3 1.388-0.152 0.024-3e-3 1.398-0.119 0.024-2e-3 1.408-0.085 0.024-1e-3 1.418-0.052 0.024-1e-3 1.426-0.017h0.024l1.426 0.017 0.024 1e-3 1.418 0.052 0.024 1e-3 1.408 0.085 0.024 2e-3 1.398 0.119 0.024 3e-3 1.388 0.152 0.024 3e-3 1.377 0.185 0.024 3e-3 1.366 0.217 0.024 4e-3 1.355 0.249 0.023 5e-3 1.343 0.28 0.023 5e-3 1.331 0.312 0.023 6e-3 1.318 0.342 0.023 6e-3 1.304 0.372 0.023 7e-3 1.291 0.402 0.022 7e-3 1.277 0.432 0.022 8e-3 1.262 0.46 0.023 8e-3 1.247 0.489 0.022 9e-3 1.231 0.517 0.022 9e-3 1.216 0.545 0.021 0.01 1.2 0.571 0.021 0.011 1.183 0.599 0.021 0.011 1.166 0.625 0.02 0.011 1.148 0.651 0.021 0.012 1.13 0.677 0.02 0.012 1.112 0.702 0.02 0.013 1.092 0.727 0.02 0.013 1.073 0.751 0.019 0.014 1.054 0.775 0.019 0.014 1.033 0.798 0.019 0.015 1.013 0.822 0.018 0.015 0.992 0.844 0.018 0.016 0.97 0.866 0.018 0.016 0.948 0.888 0.017 0.017 0.927 0.91 0.016 0.017 0.904 0.931 0.016 0.017 0.88 0.951 0.016 0.018 0.857 0.972 0.015 0.018 0.833 0.991 0.015 0.019 0.808 1.011 0.015 0.019 0.783 1.03 0.014 0.019 0.758 1.048 0.014 0.02 0.731 1.067 0.014 0.02 0.705 1.084 0.014 0.021 0.678 1.101 0.013 0.021 0.652 1.119 0.012 0.021 0.624 1.135 0.012 0.022 0.596 1.15 0.011 0.023 0.568 1.166 0.01 0.023 0.539 1.181 0.01 0.023 0.51 1.196 9e-3 0.024 0.48 1.21 9e-3 0.024 0.45 1.225 8e-3 0.024 0.419 1.238 8e-3 0.024 0.388 1.251 7e-3 0.025 0.357 1.264 7e-3 0.025 0.324 1.276 6e-3 0.025 0.293 1.288 5e-3 0.026 0.26 1.299 4e-3 0.026 0.227 1.31 4e-3 0.026 0.193 1.321 3e-3 0.026 0.159 1.332 3e-3 0.026 0.124 1.341 2e-3 0.026 0.089 1.351 1e-3 0.026 0.054 1.359 1e-3 0.027 0.018 1.368v0.026l-0.018 1.368-1e-3 0.027-0.054 1.359-1e-3 0.026-0.089 1.351-2e-3 0.026-0.124 1.341-3e-3 0.026-0.159 1.332-3e-3 0.026-0.193 1.321-4e-3 0.026-0.227 1.31-4e-3 0.026-0.26 1.299-5e-3 0.026-0.293 1.288-6e-3 0.025-0.324 1.276-7e-3 0.025-0.357 1.264-7e-3 0.025-0.388 1.251-8e-3 0.024-0.419 1.238-8e-3 0.024-0.45 1.225-9e-3 0.024-0.48 1.21-9e-3 0.024-0.51 1.196-0.01 0.023-0.539 1.181-0.01 0.023-0.568 1.166-0.011 0.023-0.596 1.15-0.012 0.022-0.624 1.135-0.012 0.021-0.652 1.119-0.013 0.021-0.678 1.101-0.014 0.021-0.705 1.084-0.014 0.02-0.731 1.067-0.014 0.02-0.758 1.048-0.014 0.019-0.783 1.03-0.015 0.019-0.808 1.011-0.015 0.019-0.833 0.991-0.015 0.018-0.857 0.972-0.016 0.018-0.88 0.951-0.016 0.017-0.904 0.931-0.016 0.017-0.927 0.91-0.017 0.016-0.948 0.889-0.018 0.016-0.97 0.866-0.018 0.016-0.992 0.844-0.018 0.015-1.013 0.822-0.019 0.015-1.033 0.798-0.019 0.014-1.054 0.775-0.019 0.014-1.073 0.751-0.02 0.013-1.092 0.727-0.02 0.013-1.112 0.702-0.02 0.012-1.13 0.677-0.021 0.012-1.148 0.651-0.02 0.011-1.166 0.625-0.021 0.011-1.183 0.599-0.021 0.01-1.2 0.572-0.021 0.01-1.216 0.545-0.022 9e-3 -1.231 0.517-0.022 9e-3 -1.247 0.489-0.023 8e-3 -1.262 0.46-0.022 8e-3 -1.277 0.432-0.022 7e-3 -1.291 0.402-0.023 7e-3 -1.304 0.372-0.023 6e-3 -1.318 0.342-0.023 6e-3 -1.331 0.311-0.023 6e-3 -1.343 0.28-0.023 5e-3 -1.355 0.249-0.024 4e-3 -1.366 0.217-0.024 3e-3 -1.377 0.185-0.024 3e-3 -1.388 0.152-0.024 3e-3 -1.398 0.119-0.024 2e-3 -1.408 0.085-0.024 1e-3 -1.418 0.052-0.024 1e-3 -1.426 0.017h-0.024l-1.426-0.017-0.024-1e-3 -1.418-0.052-0.024-1e-3 -1.408-0.085-0.024-2e-3 -1.398-0.119-0.024-3e-3 -1.388-0.152-0.024-3e-3 -1.377-0.185-0.024-3e-3 -1.366-0.217-0.024-4e-3 -1.355-0.249-0.023-5e-3 -1.343-0.28-0.023-6e-3 -1.331-0.311-0.023-6e-3 -1.318-0.342-0.023-6e-3 -1.304-0.372-0.023-7e-3 -1.291-0.402-0.022-7e-3 -1.277-0.432-0.022-8e-3 -1.262-0.46-0.023-8e-3 -1.247-0.489-0.022-9e-3 -1.231-0.517-0.022-9e-3 -1.216-0.545-0.021-0.01-1.2-0.572-0.021-0.01-1.183-0.599-0.021-0.011-1.166-0.625-0.02-0.011-1.148-0.651-0.021-0.012-1.13-0.677-0.02-0.012-1.112-0.702-0.02-0.013-1.092-0.727-0.02-0.013-1.073-0.751-0.019-0.014-1.054-0.775-0.019-0.014-1.033-0.798-0.019-0.015-1.013-0.822-0.018-0.015-0.992-0.844-0.018-0.016-0.97-0.866-0.018-0.016-0.948-0.889-0.017-0.016-0.927-0.91-0.016-0.017-0.904-0.931-0.016-0.017-0.88-0.951-0.016-0.018-0.857-0.972-0.015-0.018-0.833-0.991-0.015-0.019-0.808-1.011-0.015-0.019-0.783-1.03-0.014-0.019-0.758-1.048-0.014-0.02-0.731-1.067-0.014-0.02-0.705-1.084-0.014-0.021-0.678-1.101-0.013-0.021-0.652-1.119-0.012-0.021-0.624-1.135-0.012-0.022-0.596-1.15-0.011-0.023-0.568-1.166-0.01-0.023-0.539-1.181-0.01-0.023-0.51-1.196-9e-3 -0.024-0.48-1.21-9e-3 -0.024-0.45-1.225-8e-3 -0.024-0.419-1.238-8e-3 -0.024-0.388-1.251-8e-3 -0.025-0.356-1.264-7e-3 -0.025-0.324-1.276-6e-3 -0.025-0.293-1.288-5e-3 -0.026-0.26-1.299-4e-3 -0.026-0.227-1.31-4e-3 -0.026-0.193-1.321-3e-3 -0.026-0.159-1.332-3e-3 -0.026-0.124-1.341-2e-3 -0.026-0.089-1.351-1e-3 -0.026-0.054-1.359-1e-3 -0.027-0.018-1.368v-0.026zm1.982 1.394v-0.026l0.018 1.368-1e-3 -0.027 0.054 1.36-1e-3 -0.027 0.089 1.351-2e-3 -0.026 0.124 1.341-3e-3 -0.026 0.159 1.331-4e-3 -0.026 0.193 1.321-4e-3 -0.026 0.226 1.311-4e-3 -0.026 0.259 1.299-5e-3 -0.025 0.292 1.288-6e-3 -0.025 0.325 1.276-7e-3 -0.025 0.356 1.264-7e-3 -0.025 0.388 1.251-8e-3 -0.024 0.419 1.238-8e-3 -0.024 0.449 1.224-9e-3 -0.023 0.48 1.21-0.01-0.023 0.51 1.196-0.01-0.023 0.538 1.181-0.01-0.022 0.567 1.166-0.011-0.022 0.596 1.15-0.011-0.022 0.624 1.135-0.013-0.022 0.652 1.119-0.013-0.022 0.679 1.102-0.013-0.021 0.705 1.084-0.013-0.02 0.731 1.066-0.014-0.02 0.758 1.048-0.015-0.019 0.783 1.029-0.015-0.019 0.808 1.011-0.015-0.018 0.832 0.991-0.015-0.018 0.856 0.971-0.016-0.018 0.88 0.952-0.016-0.017 0.903 0.93-0.017-0.017 0.926 0.91-0.017-0.016 0.948 0.888-0.017-0.016 0.97 0.867-0.018-0.016 0.992 0.844-0.018-0.015 1.013 0.822-0.019-0.015 1.034 0.798-0.019-0.014 1.054 0.775-0.02-0.014 1.074 0.751-0.02-0.013 1.093 0.727-0.02-0.013 1.112 0.702-0.02-0.013 1.13 0.677-0.021-0.012 1.148 0.651-0.021-0.011 1.166 0.625-0.021-0.011 1.183 0.599-0.021-0.011 1.199 0.572-0.021-0.01 1.215 0.544-0.021-9e-3 1.231 0.517-0.022-9e-3 1.247 0.489-0.022-9e-3 1.262 0.46-0.023-7e-3 1.277 0.431-0.023-8e-3 1.291 0.402-0.023-6e-3 1.304 0.372-0.023-7e-3 1.317 0.342-0.023-5e-3 1.33 0.311-0.023-5e-3 1.343 0.28-0.024-4e-3 1.355 0.249-0.024-4e-3 1.366 0.217-0.024-4e-3 1.377 0.185-0.024-3e-3 1.388 0.152-0.024-2e-3 1.398 0.119-0.024-2e-3 1.408 0.086-0.025-1e-3 1.417 0.051h-0.024l1.426 0.017h-0.024l1.426-0.017h-0.024l1.417-0.051-0.025 1e-3 1.408-0.086-0.024 2e-3 1.398-0.119-0.024 2e-3 1.388-0.152-0.024 3e-3 1.377-0.185-0.024 4e-3 1.366-0.217-0.024 4e-3 1.355-0.249-0.024 4e-3 1.343-0.28-0.023 5e-3 1.33-0.311-0.023 5e-3 1.317-0.342-0.023 7e-3 1.304-0.372-0.023 6e-3 1.291-0.402-0.023 8e-3 1.277-0.431-0.023 7e-3 1.262-0.46-0.022 9e-3 1.247-0.489-0.022 9e-3 1.231-0.517-0.021 9e-3 1.215-0.544-0.021 0.01 1.199-0.572-0.021 0.011 1.183-0.599-0.021 0.011 1.165-0.625-0.02 0.011 1.148-0.651-0.021 0.012 1.13-0.677-0.02 0.013 1.112-0.702-0.02 0.013 1.093-0.727-0.02 0.013 1.074-0.751-0.02 0.014 1.054-0.775-0.019 0.014 1.034-0.798-0.019 0.015 1.013-0.822-0.018 0.015 0.992-0.844-0.018 0.016 0.97-0.867-0.017 0.016 0.948-0.888-0.017 0.016 0.926-0.91-0.017 0.017 0.903-0.93-0.016 0.017 0.88-0.952-0.016 0.018 0.856-0.971-0.015 0.018 0.832-0.991-0.015 0.018 0.808-1.011-0.015 0.019 0.783-1.029-0.015 0.019 0.758-1.048-0.014 0.02 0.731-1.066-0.013 0.02 0.705-1.084-0.013 0.021 0.679-1.102-0.013 0.022 0.652-1.119-0.013 0.022 0.624-1.135-0.011 0.022 0.596-1.15-0.011 0.022 0.567-1.166-0.01 0.022 0.538-1.181-0.01 0.023 0.51-1.196-0.01 0.023 0.48-1.21-9e-3 0.023 0.449-1.224-8e-3 0.024 0.419-1.238-8e-3 0.024 0.388-1.251-7e-3 0.025 0.356-1.264-7e-3 0.025 0.325-1.276-6e-3 0.025 0.292-1.288-5e-3 0.025 0.259-1.299-4e-3 0.026 0.226-1.311-4e-3 0.026 0.193-1.321-4e-3 0.026 0.159-1.331-3e-3 0.026 0.124-1.341-2e-3 0.026 0.089-1.351-1e-3 0.027 0.054-1.36-1e-3 0.027 0.018-1.368v0.026l-0.018-1.368 1e-3 0.027-0.054-1.36 1e-3 0.027-0.089-1.351 2e-3 0.026-0.124-1.341 3e-3 0.026-0.159-1.331 4e-3 0.026-0.193-1.321 4e-3 0.026-0.226-1.311 4e-3 0.026-0.259-1.3 5e-3 0.026-0.292-1.288 6e-3 0.025-0.325-1.276 7e-3 0.025-0.356-1.264 7e-3 0.025-0.388-1.251 8e-3 0.024-0.419-1.238 8e-3 0.024-0.449-1.225 9e-3 0.024-0.48-1.21 0.01 0.023-0.51-1.196 0.01 0.023-0.538-1.182 0.01 0.023-0.567-1.166 0.011 0.022-0.596-1.15 0.011 0.022-0.624-1.135 0.013 0.022-0.652-1.119 0.013 0.022-0.679-1.102 0.013 0.021-0.705-1.084 0.013 0.02-0.731-1.066 0.014 0.02-0.758-1.048 0.015 0.019-0.783-1.03 0.015 0.02-0.808-1.011 0.015 0.018-0.832-0.991 0.015 0.018-0.856-0.971 0.016 0.017-0.88-0.951 0.016 0.017-0.903-0.93 0.017 0.016-0.926-0.909 0.017 0.016-0.948-0.888 0.017 0.016-0.97-0.867 0.018 0.016-0.992-0.844 0.018 0.015-1.013-0.822 0.019 0.015-1.034-0.799 0.019 0.015-1.054-0.775 0.02 0.014-1.074-0.751 0.02 0.013-1.093-0.727 0.02 0.013-1.112-0.702 0.02 0.013-1.13-0.677 0.021 0.012-1.148-0.651 0.02 0.011-1.165-0.625 0.021 0.011-1.183-0.599 0.021 0.011-1.199-0.572 0.021 0.01-1.215-0.545 0.021 0.01-1.231-0.517 0.022 9e-3 -1.247-0.489 0.022 9e-3 -1.262-0.461 0.023 8e-3 -1.277-0.431 0.023 7e-3 -1.291-0.401 0.023 6e-3 -1.304-0.372 0.023 7e-3 -1.317-0.343 0.023 6e-3 -1.33-0.311 0.023 5e-3 -1.343-0.28 0.024 4e-3 -1.355-0.249 0.024 4e-3 -1.366-0.217 0.024 4e-3 -1.377-0.185 0.024 3e-3 -1.388-0.152 0.024 2e-3 -1.398-0.119 0.024 2e-3 -1.408-0.086 0.025 1e-3 -1.417-0.051h0.024l-1.426-0.017h0.024l-1.426 0.017h0.024l-1.417 0.051 0.025-1e-3 -1.408 0.086 0.024-2e-3 -1.398 0.119 0.024-2e-3 -1.388 0.152 0.024-3e-3 -1.377 0.185 0.024-4e-3 -1.366 0.217 0.024-4e-3 -1.355 0.249 0.024-4e-3 -1.343 0.28 0.023-5e-3 -1.33 0.311 0.023-6e-3 -1.317 0.343 0.023-7e-3 -1.304 0.372 0.023-6e-3 -1.291 0.401 0.023-7e-3 -1.277 0.431 0.023-8e-3 -1.262 0.461 0.022-9e-3 -1.247 0.489 0.022-9e-3 -1.231 0.517 0.021-0.01-1.215 0.545 0.021-0.01-1.199 0.572 0.021-0.011-1.183 0.599 0.021-0.011-1.166 0.625 0.021-0.011-1.148 0.651 0.021-0.012-1.13 0.677 0.02-0.013-1.112 0.702 0.02-0.013-1.093 0.727 0.02-0.013-1.074 0.751 0.02-0.014-1.054 0.775 0.019-0.015-1.034 0.799 0.019-0.015-1.013 0.822 0.018-0.015-0.992 0.844 0.018-0.016-0.97 0.867 0.017-0.016-0.948 0.888 0.017-0.016-0.926 0.909 0.017-0.016-0.903 0.93 0.016-0.017-0.88 0.951 0.016-0.017-0.856 0.971 0.015-0.018-0.832 0.991 0.015-0.018-0.808 1.011 0.015-0.02-0.783 1.03 0.015-0.019-0.758 1.048 0.014-0.02-0.731 1.066 0.013-0.02-0.705 1.084 0.013-0.021-0.679 1.102 0.013-0.022-0.652 1.119 0.013-0.022-0.624 1.135 0.011-0.022-0.596 1.15 0.011-0.022-0.567 1.166 0.01-0.023-0.538 1.182 0.01-0.023-0.51 1.196 0.01-0.023-0.48 1.21 9e-3 -0.024-0.449 1.225 8e-3 -0.024-0.419 1.238 8e-3 -0.024-0.388 1.251 7e-3 -0.025-0.356 1.264 7e-3 -0.025-0.325 1.276 6e-3 -0.025-0.292 1.288 5e-3 -0.026-0.259 1.3 4e-3 -0.026-0.226 1.311 4e-3 -0.026-0.193 1.321 4e-3 -0.026-0.159 1.331 3e-3 -0.026-0.124 1.341 2e-3 -0.026-0.089 1.351 1e-3 -0.027-0.054 1.36 1e-3 -0.027-0.018 1.368"
           id="path215" />
        <path
           d="m256.52 433.62 1e-3 -0.027 0.054-1.359 1e-3 -0.026 0.089-1.351 2e-3 -0.026 0.124-1.341 3e-3 -0.026 0.159-1.332 3e-3 -0.026 0.193-1.321 4e-3 -0.026 0.227-1.31 4e-3 -0.026 0.26-1.299 5e-3 -0.026 0.293-1.288 6e-3 -0.025 0.324-1.276 7e-3 -0.025 0.356-1.264 8e-3 -0.025 0.388-1.251 8e-3 -0.024 0.419-1.238 8e-3 -0.024 0.45-1.225 9e-3 -0.024 0.48-1.21 9e-3 -0.024 0.51-1.196 0.01-0.023 0.539-1.181 0.01-0.023 0.568-1.166 0.011-0.023 0.596-1.15 0.012-0.022 0.624-1.135 0.012-0.021 0.652-1.119 0.013-0.021 0.678-1.101 0.014-0.021 0.705-1.084 0.014-0.02 0.731-1.067 0.014-0.02 0.758-1.048 0.014-0.019 0.783-1.03 0.015-0.019 0.808-1.011 0.015-0.019 0.833-0.991 0.015-0.018 0.857-0.972 0.016-0.018 0.88-0.951 0.016-0.017 0.904-0.931 0.016-0.017 0.927-0.91 0.017-0.017 0.948-0.888 0.018-0.016 0.97-0.866 0.018-0.016 0.992-0.844 0.018-0.015 1.013-0.822 0.018-0.015 1.034-0.798 0.019-0.014 1.054-0.775 0.019-0.014 1.073-0.751 0.02-0.014 1.092-0.726 0.02-0.013 1.112-0.702 0.02-0.012 1.13-0.677 0.021-0.012 1.148-0.651 0.02-0.011 1.166-0.625 0.021-0.011 1.183-0.599 0.021-0.011 1.2-0.571 0.021-0.01 1.216-0.545 0.022-9e-3 1.231-0.517 0.022-9e-3 1.247-0.489 0.023-8e-3 1.262-0.46 0.022-8e-3 1.277-0.432 0.022-7e-3 1.291-0.402 0.023-7e-3 1.304-0.372 0.023-6e-3 1.318-0.342 0.023-6e-3 1.331-0.312 0.023-5e-3 1.343-0.28 0.023-5e-3 1.355-0.249 0.024-4e-3 1.366-0.217 0.024-3e-3 1.377-0.185 0.024-3e-3 1.388-0.152 0.024-3e-3 1.398-0.119 0.024-2e-3 1.408-0.085 0.024-1e-3 1.418-0.052 0.024-1e-3 1.426-0.017h0.024l1.426 0.017 0.024 1e-3 1.418 0.052 0.024 1e-3 1.408 0.085 0.024 2e-3 1.398 0.119 0.024 3e-3 1.388 0.152 0.024 3e-3 1.377 0.185 0.024 3e-3 1.366 0.217 0.024 4e-3 1.355 0.249 0.023 5e-3 1.343 0.28 0.023 5e-3 1.331 0.312 0.023 6e-3 1.318 0.342 0.023 6e-3 1.304 0.372 0.023 7e-3 1.291 0.402 0.022 7e-3 1.277 0.432 0.022 8e-3 1.262 0.46 0.023 8e-3 1.247 0.489 0.022 9e-3 1.231 0.517 0.022 9e-3 1.216 0.545 0.021 0.01 1.2 0.571 0.021 0.011 1.183 0.599 0.021 0.011 1.166 0.625 0.02 0.011 1.148 0.651 0.021 0.012 1.13 0.677 0.02 0.012 1.112 0.702 0.019 0.013 1.093 0.726 0.02 0.014 1.073 0.751 0.019 0.014 1.054 0.775 0.019 0.014 1.033 0.798 0.019 0.015 1.013 0.822 0.018 0.015 0.992 0.844 0.018 0.016 0.97 0.866 0.018 0.016 0.948 0.888 0.017 0.017 0.927 0.91 0.016 0.017 0.904 0.931 0.016 0.017 0.88 0.951 0.016 0.018 0.857 0.972 0.015 0.018 0.833 0.991 0.015 0.019 0.808 1.011 0.015 0.019 0.783 1.03 0.014 0.019 0.758 1.048 0.014 0.02 0.731 1.067 0.014 0.02 0.705 1.084 0.014 0.021 0.678 1.101 0.013 0.021 0.652 1.119 0.012 0.021 0.624 1.135 0.012 0.022 0.596 1.15 0.011 0.023 0.567 1.166 0.011 0.023 0.539 1.181 0.01 0.023 0.51 1.196 9e-3 0.024 0.48 1.21 9e-3 0.024 0.45 1.225 8e-3 0.024 0.419 1.238 8e-3 0.024 0.388 1.251 7e-3 0.025 0.357 1.264 7e-3 0.025 0.324 1.276 6e-3 0.025 0.293 1.288 5e-3 0.026 0.26 1.299 4e-3 0.026 0.227 1.31 4e-3 0.026 0.193 1.321 3e-3 0.026 0.159 1.332 2e-3 0.026 0.125 1.341 2e-3 0.026 0.089 1.351 1e-3 0.026 0.054 1.359 1e-3 0.027 0.018 1.368v0.026l-0.018 1.368-1e-3 0.027-0.054 1.359-1e-3 0.026-0.089 1.351-2e-3 0.026-0.125 1.341-2e-3 0.026-0.159 1.332-3e-3 0.026-0.193 1.321-4e-3 0.026-0.227 1.31-4e-3 0.026-0.26 1.299-5e-3 0.026-0.293 1.288-6e-3 0.025-0.324 1.276-7e-3 0.025-0.357 1.264-7e-3 0.025-0.388 1.251-8e-3 0.024-0.419 1.238-8e-3 0.024-0.45 1.225-9e-3 0.024-0.48 1.21-9e-3 0.024-0.51 1.196-0.01 0.023-0.539 1.181-0.011 0.023-0.567 1.166-0.011 0.023-0.596 1.15-0.012 0.022-0.624 1.135-0.012 0.021-0.652 1.119-0.013 0.021-0.678 1.101-0.014 0.021-0.705 1.084-0.014 0.02-0.731 1.067-0.014 0.019-0.758 1.049-0.014 0.019-0.783 1.03-0.015 0.019-0.808 1.011-0.015 0.018-0.833 0.992-0.015 0.018-0.857 0.972-0.016 0.018-0.88 0.951-0.016 0.017-0.904 0.931-0.016 0.017-0.927 0.91-0.017 0.016-0.948 0.889-0.018 0.016-0.97 0.866-0.018 0.016-0.992 0.844-0.018 0.015-1.013 0.822-0.019 0.015-1.033 0.798-0.019 0.014-1.054 0.775-0.019 0.014-1.073 0.751-0.02 0.013-1.093 0.727-0.019 0.013-1.112 0.702-0.02 0.012-1.13 0.677-0.021 0.012-1.148 0.651-0.02 0.011-1.166 0.625-0.021 0.011-1.183 0.599-0.021 0.01-1.2 0.572-0.021 0.01-1.216 0.545-0.022 9e-3 -1.231 0.517-0.022 9e-3 -1.247 0.489-0.023 8e-3 -1.262 0.46-0.022 8e-3 -1.277 0.432-0.022 7e-3 -1.291 0.402-0.023 7e-3 -1.304 0.372-0.023 6e-3 -1.318 0.342-0.023 6e-3 -1.331 0.311-0.023 6e-3 -1.343 0.28-0.023 5e-3 -1.355 0.249-0.024 4e-3 -1.366 0.217-0.024 3e-3 -1.377 0.185-0.024 3e-3 -1.388 0.152-0.024 3e-3 -1.398 0.119-0.024 2e-3 -1.408 0.085-0.024 1e-3 -1.418 0.052-0.024 1e-3 -1.426 0.017h-0.024l-1.426-0.017-0.024-1e-3 -1.418-0.052-0.024-1e-3 -1.408-0.085-0.024-2e-3 -1.398-0.119-0.024-3e-3 -1.388-0.152-0.024-3e-3 -1.377-0.185-0.024-3e-3 -1.366-0.217-0.024-4e-3 -1.355-0.249-0.023-5e-3 -1.343-0.28-0.023-6e-3 -1.331-0.311-0.023-6e-3 -1.318-0.342-0.023-6e-3 -1.304-0.372-0.023-7e-3 -1.291-0.402-0.022-7e-3 -1.277-0.432-0.022-8e-3 -1.262-0.46-0.023-8e-3 -1.247-0.489-0.022-9e-3 -1.231-0.517-0.022-9e-3 -1.216-0.545-0.021-0.01-1.2-0.572-0.021-0.01-1.183-0.599-0.021-0.011-1.166-0.625-0.02-0.011-1.148-0.651-0.021-0.012-1.13-0.677-0.02-0.012-1.112-0.702-0.02-0.013-1.092-0.727-0.02-0.013-1.073-0.751-0.019-0.014-1.054-0.775-0.019-0.014-1.034-0.798-0.018-0.015-1.013-0.822-0.018-0.015-0.992-0.844-0.018-0.016-0.97-0.866-0.018-0.016-0.948-0.889-0.017-0.016-0.927-0.91-0.016-0.017-0.904-0.931-0.016-0.017-0.88-0.951-0.016-0.018-0.857-0.972-0.015-0.018-0.833-0.992-0.015-0.018-0.808-1.011-0.015-0.019-0.783-1.03-0.014-0.019-0.758-1.049-0.014-0.019-0.731-1.067-0.014-0.02-0.705-1.084-0.014-0.021-0.678-1.101-0.013-0.021-0.652-1.119-0.012-0.021-0.624-1.135-0.012-0.022-0.596-1.15-0.011-0.023-0.568-1.166-0.01-0.023-0.539-1.181-0.01-0.023-0.51-1.196-9e-3 -0.024-0.48-1.21-9e-3 -0.024-0.45-1.225-8e-3 -0.024-0.419-1.238-8e-3 -0.024-0.388-1.251-8e-3 -0.025-0.356-1.264-7e-3 -0.025-0.324-1.276-6e-3 -0.025-0.293-1.288-5e-3 -0.026-0.26-1.299-4e-3 -0.026-0.227-1.31-4e-3 -0.026-0.193-1.321-3e-3 -0.026-0.159-1.332-3e-3 -0.026-0.124-1.341-2e-3 -0.026-0.089-1.351-1e-3 -0.026-0.054-1.359-1e-3 -0.027-0.018-1.368v-0.026zm1.982 1.394v-0.026l0.018 1.368-1e-3 -0.027 0.054 1.36-1e-3 -0.027 0.089 1.351-2e-3 -0.026 0.124 1.341-3e-3 -0.026 0.159 1.331-4e-3 -0.026 0.193 1.321-4e-3 -0.026 0.226 1.311-4e-3 -0.026 0.259 1.299-5e-3 -0.025 0.292 1.288-6e-3 -0.025 0.325 1.276-7e-3 -0.025 0.356 1.264-7e-3 -0.025 0.388 1.251-8e-3 -0.024 0.419 1.238-8e-3 -0.024 0.449 1.224-9e-3 -0.023 0.48 1.21-0.01-0.023 0.51 1.196-0.01-0.023 0.538 1.181-0.01-0.022 0.567 1.166-0.011-0.022 0.596 1.15-0.011-0.022 0.624 1.135-0.013-0.022 0.652 1.119-0.013-0.022 0.679 1.102-0.013-0.021 0.705 1.084-0.013-0.02 0.731 1.066-0.014-0.02 0.758 1.048-0.015-0.019 0.783 1.029-0.015-0.019 0.808 1.011-0.015-0.019 0.832 0.992-0.015-0.018 0.856 0.971-0.016-0.018 0.88 0.952-0.016-0.017 0.903 0.93-0.017-0.017 0.926 0.91-0.017-0.016 0.948 0.888-0.017-0.016 0.97 0.867-0.018-0.016 0.992 0.844-0.018-0.015 1.013 0.822-0.019-0.015 1.034 0.798-0.019-0.014 1.053 0.775-0.019-0.014 1.074 0.751-0.02-0.013 1.093 0.727-0.02-0.013 1.112 0.702-0.02-0.013 1.13 0.677-0.021-0.012 1.148 0.651-0.021-0.011 1.166 0.625-0.021-0.011 1.183 0.599-0.021-0.011 1.199 0.572-0.021-0.01 1.215 0.544-0.021-9e-3 1.231 0.517-0.022-9e-3 1.247 0.489-0.022-9e-3 1.262 0.46-0.023-7e-3 1.277 0.431-0.023-8e-3 1.291 0.402-0.023-6e-3 1.304 0.372-0.023-7e-3 1.317 0.342-0.023-5e-3 1.33 0.311-0.023-5e-3 1.343 0.28-0.024-4e-3 1.355 0.249-0.024-4e-3 1.366 0.217-0.024-4e-3 1.377 0.185-0.024-3e-3 1.388 0.152-0.024-2e-3 1.398 0.119-0.024-2e-3 1.407 0.086-0.024-1e-3 1.417 0.051h-0.024l1.426 0.017h-0.024l1.426-0.017h-0.024l1.417-0.051-0.025 1e-3 1.408-0.086-0.024 2e-3 1.398-0.119-0.024 2e-3 1.388-0.152-0.024 3e-3 1.377-0.185-0.024 4e-3 1.366-0.217-0.024 4e-3 1.355-0.249-0.024 4e-3 1.343-0.28-0.023 5e-3 1.33-0.311-0.023 5e-3 1.317-0.342-0.023 7e-3 1.304-0.372-0.023 6e-3 1.291-0.402-0.023 8e-3 1.277-0.431-0.023 7e-3 1.262-0.46-0.022 9e-3 1.247-0.489-0.022 9e-3 1.231-0.517-0.021 9e-3 1.215-0.544-0.021 0.01 1.199-0.572-0.021 0.011 1.183-0.599-0.021 0.011 1.165-0.625-0.02 0.011 1.148-0.651-0.021 0.012 1.13-0.677-0.02 0.013 1.112-0.702-0.02 0.013 1.093-0.727-0.02 0.013 1.074-0.751-0.02 0.014 1.054-0.775-0.019 0.014 1.034-0.798-0.019 0.015 1.013-0.822-0.018 0.015 0.992-0.844-0.018 0.016 0.97-0.867-0.017 0.016 0.948-0.888-0.017 0.016 0.926-0.91-0.017 0.017 0.903-0.93-0.016 0.017 0.88-0.952-0.016 0.018 0.856-0.971-0.015 0.018 0.832-0.992-0.015 0.019 0.808-1.011-0.015 0.019 0.783-1.029-0.015 0.019 0.758-1.048-0.014 0.02 0.731-1.066-0.013 0.02 0.705-1.084-0.013 0.021 0.679-1.102-0.013 0.022 0.652-1.119-0.013 0.022 0.624-1.135-0.011 0.022 0.596-1.15-0.011 0.022 0.567-1.166-0.01 0.022 0.538-1.181-0.01 0.023 0.51-1.196-0.01 0.023 0.48-1.21-9e-3 0.023 0.449-1.224-8e-3 0.024 0.419-1.238-8e-3 0.024 0.388-1.251-7e-3 0.025 0.356-1.264-7e-3 0.025 0.325-1.276-6e-3 0.025 0.292-1.288-5e-3 0.025 0.259-1.299-4e-3 0.026 0.226-1.311-4e-3 0.026 0.193-1.321-4e-3 0.026 0.159-1.331-3e-3 0.026 0.124-1.341-2e-3 0.026 0.089-1.351-1e-3 0.027 0.054-1.36-1e-3 0.027 0.018-1.368v0.026l-0.018-1.368 1e-3 0.027-0.054-1.36 1e-3 0.027-0.089-1.351 2e-3 0.026-0.124-1.341 3e-3 0.026-0.159-1.331 4e-3 0.026-0.193-1.321 4e-3 0.026-0.226-1.311 4e-3 0.026-0.259-1.3 5e-3 0.026-0.292-1.288 6e-3 0.025-0.325-1.276 7e-3 0.025-0.356-1.264 7e-3 0.025-0.388-1.251 8e-3 0.024-0.419-1.238 8e-3 0.024-0.449-1.225 9e-3 0.024-0.48-1.21 0.01 0.023-0.51-1.196 0.01 0.023-0.538-1.182 0.01 0.023-0.567-1.166 0.011 0.022-0.596-1.15 0.011 0.022-0.624-1.135 0.013 0.022-0.652-1.119 0.013 0.022-0.679-1.102 0.013 0.021-0.705-1.084 0.013 0.02-0.731-1.066 0.014 0.02-0.758-1.048 0.015 0.019-0.783-1.03 0.015 0.02-0.808-1.011 0.015 0.018-0.832-0.991 0.015 0.018-0.856-0.971 0.016 0.017-0.88-0.951 0.016 0.017-0.903-0.93 0.017 0.016-0.926-0.909 0.017 0.016-0.948-0.888 0.017 0.016-0.97-0.867 0.018 0.016-0.992-0.844 0.018 0.015-1.013-0.822 0.019 0.015-1.034-0.799 0.019 0.015-1.054-0.775 0.02 0.014-1.074-0.751 0.02 0.013-1.093-0.727 0.02 0.013-1.112-0.702 0.02 0.013-1.13-0.677 0.021 0.012-1.148-0.651 0.02 0.011-1.165-0.625 0.021 0.011-1.183-0.599 0.021 0.011-1.199-0.572 0.021 0.01-1.215-0.545 0.021 0.01-1.231-0.517 0.022 9e-3 -1.247-0.489 0.022 9e-3 -1.262-0.461 0.023 8e-3 -1.277-0.431 0.023 7e-3 -1.291-0.401 0.023 6e-3 -1.304-0.372 0.023 6e-3 -1.317-0.342 0.023 6e-3 -1.33-0.311 0.023 5e-3 -1.343-0.28 0.024 4e-3 -1.355-0.249 0.024 4e-3 -1.366-0.217 0.024 4e-3 -1.377-0.185 0.024 3e-3 -1.388-0.152 0.024 2e-3 -1.398-0.119 0.024 2e-3 -1.408-0.086 0.025 1e-3 -1.417-0.051h0.024l-1.426-0.017h0.024l-1.426 0.017h0.024l-1.417 0.051 0.024-1e-3 -1.407 0.086 0.024-2e-3 -1.398 0.119 0.024-2e-3 -1.388 0.152 0.024-3e-3 -1.377 0.185 0.024-4e-3 -1.366 0.217 0.024-4e-3 -1.355 0.249 0.024-4e-3 -1.343 0.28 0.023-5e-3 -1.33 0.311 0.023-6e-3 -1.317 0.342 0.023-6e-3 -1.304 0.372 0.023-6e-3 -1.291 0.401 0.023-7e-3 -1.277 0.431 0.023-8e-3 -1.262 0.461 0.022-9e-3 -1.247 0.489 0.022-9e-3 -1.231 0.517 0.021-0.01-1.215 0.545 0.021-0.01-1.199 0.572 0.021-0.011-1.183 0.599 0.021-0.011-1.166 0.625 0.021-0.011-1.148 0.651 0.021-0.012-1.13 0.677 0.02-0.013-1.112 0.702 0.02-0.013-1.093 0.727 0.02-0.013-1.074 0.751 0.019-0.014-1.053 0.775 0.019-0.015-1.034 0.799 0.019-0.015-1.013 0.822 0.018-0.015-0.992 0.844 0.018-0.016-0.97 0.867 0.017-0.016-0.948 0.888 0.017-0.016-0.926 0.909 0.017-0.016-0.903 0.93 0.016-0.017-0.88 0.951 0.016-0.017-0.856 0.971 0.015-0.018-0.832 0.991 0.015-0.018-0.808 1.011 0.015-0.02-0.783 1.03 0.015-0.019-0.758 1.048 0.014-0.02-0.731 1.066 0.013-0.02-0.705 1.084 0.013-0.021-0.679 1.102 0.013-0.022-0.652 1.119 0.013-0.022-0.624 1.135 0.011-0.022-0.596 1.15 0.011-0.022-0.567 1.166 0.01-0.023-0.538 1.182 0.01-0.023-0.51 1.196 0.01-0.023-0.48 1.21 9e-3 -0.024-0.449 1.225 8e-3 -0.024-0.419 1.238 8e-3 -0.024-0.388 1.251 7e-3 -0.025-0.356 1.264 7e-3 -0.025-0.325 1.276 6e-3 -0.025-0.292 1.288 5e-3 -0.026-0.259 1.3 4e-3 -0.026-0.226 1.311 4e-3 -0.026-0.193 1.321 4e-3 -0.026-0.159 1.331 3e-3 -0.026-0.124 1.341 2e-3 -0.026-0.089 1.351 1e-3 -0.027-0.054 1.36 1e-3 -0.027-0.018 1.368"
           id="path217" />
        <path
           d="m520.5 169.5v-6l6 3zm-151.5-4h153v2h-153v-2"
           fill="#909"
           id="path219" />
        <path
           d="m307.5 375h6l-3 6zm4-160.5v162h-2v-162h2"
           fill="#f00"
           id="path221" />
        <path
           d="m530.66 201.7 4.292 4.192 2.046-6.389zm-180.45 190.5 184.36-188.78-1.43-1.397-184.36 188.78 1.43 1.398"
           fill="#909"
           id="path223" />
        <path
           d="m366.35 407.33-4.275-4.211-2.073 6.38zm-2.478-0.335 193.34-196.29-1.424-1.404-193.34 196.29 1.425 1.404"
           fill="#f00"
           id="path225" />
        <path
           d="m371.04 97.8h115.2v50.28h-115.2z"
           fill="#fff"
           fill-rule="evenodd"
           id="path227" />
        <text
           transform="translate(378.1,118.45)"
           fill="#0fefea"
           font-size="18px"
           font-weight="bold"
           xml:space="preserve"
           id="text231"><tspan
             id="tspan229">Write miss</tspan></text>
        <text
           transform="translate(378.1,140.05)"
           fill="#000000"
           font-size="18px"
           xml:space="preserve"
           id="text235"><tspan
             id="tspan233">for this block</tspan></text>
        <path
           d="m372.45 141v6l-6-3zm-1.5 2h154.24v2h-154.24v-2"
           fill="#0fefea"
           id="path237" />
        <path
           d="m300.55 217.9h-6l3-6zm-2-1.5v165.58h-2v-165.58h2"
           fill="#0fefea"
           id="path239" />
        <text
           fill="#000000"
           font-size="18px"
           xml:space="preserve"
           id="text243"
           x="172.54993"
           y="321.10001"><tspan
             id="tspan241">Write Back</tspan></text>
        <text
           fill="#000000"
           font-size="18px"
           xml:space="preserve"
           id="text247"
           x="172.54993"
           y="342.70001"><tspan
             id="tspan245">Block; (abort</tspan></text>
        <text
           fill="#000000"
           font-size="18px"
           xml:space="preserve"
           id="text251"
           x="172.54993"
           y="364.29999"><tspan
             id="tspan249">memory access)</tspan></text>
        <path
           d="m168 252h115.2v50.28h-115.2z"
           fill="#fff"
           fill-rule="evenodd"
           id="path253" />
        <text
           fill="#0fefea"
           font-size="18px"
           font-weight="bold"
           xml:space="preserve"
           id="text257"
           x="184.10017"
           y="274.10004"><tspan
             id="tspan255">Write miss</tspan></text>
        <text
           fill="#000000"
           font-size="18px"
           xml:space="preserve"
           id="text261"
           x="184.10017"
           y="295.70004"><tspan
             id="tspan259">for this block</tspan></text>
        <path
           d="m571.79 218.2 2.147 2.095 2.146 2.096 2.045-6.389zm-193.07 203.5 196.98-201.78-1.431-1.398-196.98 201.78 1.432 1.398"
           fill="#00ae00"
           id="path263" />
        <text
           fill="#00ae00"
           font-size="18px"
           font-weight="bold"
           xml:space="preserve"
           id="text269"
           x="425.59998"
           y="398.60001"><tspan
             id="tspan267">Read miss </tspan></text>
        <text
           fill="#000000"
           font-size="18px"
           xml:space="preserve"
           id="text273"
           x="425.59998"
           y="420.20001"><tspan
             id="tspan271">for this block</tspan></text>
        <text
           fill="#000000"
           font-size="18px"
           xml:space="preserve"
           id="text277"
           x="538.1001"
           y="392.60001"><tspan
             id="tspan275">Write Back</tspan></text>
        <text
           fill="#000000"
           font-size="18px"
           xml:space="preserve"
           id="text281"
           x="538.1001"
           y="414.20001"><tspan
             id="tspan279">Block; (abort</tspan></text>
        <text
           fill="#000000"
           font-size="18px"
           xml:space="preserve"
           id="text285"
           x="538.1001"
           y="435.79999"><tspan
             id="tspan283">memory access)</tspan></text>
        <path
           d="m602.96 219.13-3 4e-3 -3 5e-3 2.991-6.005zm27.179-32.074 0.679 0.067 0.685 0.084 0.681 0.1 0.675 0.117 0.67 0.132 0.665 0.147 0.658 0.163 0.653 0.178 0.646 0.193 0.641 0.207 0.633 0.222 0.627 0.237 0.619 0.25 0.613 0.265 0.605 0.278 0.597 0.292 0.59 0.305 0.581 0.318 0.574 0.332 0.565 0.344 0.557 0.356 0.548 0.369 0.539 0.381 0.53 0.393 0.52 0.405 0.511 0.417 0.502 0.427 0.491 0.439 0.481 0.45 0.472 0.461 0.46 0.472 0.45 0.481 0.44 0.493 0.428 0.502 0.417 0.512 0.406 0.521 0.394 0.531 0.382 0.541 0.37 0.549 0.358 0.558 0.346 0.567 0.333 0.576 0.321 0.584 0.308 0.591 0.294 0.6 0.281 0.608 0.268 0.615 0.254 0.622 0.24 0.63 0.226 0.636 0.211 0.643 0.197 0.65 0.183 0.656 0.168 0.662 0.152 0.668 0.138 0.674 0.121 0.679 0.107 0.685 0.09 0.689 0.075 0.695 0.058 0.699 0.041 0.704 0.026 0.708 8e-3 0.713-9e-3 0.751-0.028 0.747-0.047 0.742-0.065 0.738-0.082 0.732-0.101 0.726-0.118 0.721-0.136 0.714-0.152 0.708-0.169 0.702-0.187 0.695-0.202 0.689-0.219 0.68-0.235 0.674-0.25 0.666-0.266 0.658-0.281 0.65-0.296 0.641-0.312 0.633-0.325 0.624-0.34 0.615-0.355 0.606-0.368 0.596-0.382 0.586-0.395 0.577-0.409 0.566-0.421 0.556-0.435 0.545-0.447 0.534-0.459 0.524-0.472 0.512-0.483 0.5-0.495 0.488-0.507 0.477-0.517 0.464-0.529 0.452-0.54 0.44-0.55 0.426-0.56 0.413-0.571 0.4-0.58 0.386-0.59 0.372-0.6 0.359-0.609 0.344-0.617 0.329-0.627 0.315-0.635 0.299-0.643 0.285-0.652 0.269-0.659 0.253-0.667 0.238-0.674 0.221-0.682 0.205-0.688 0.188-0.695 0.172-0.702 0.154-0.707 0.137-0.714 0.119-0.719 0.102-0.725 0.084-0.73 0.066-0.736 0.047-0.739 0.028-0.745 0.01-0.744-0.01-0.74-0.028-0.735-0.047-0.731-0.066-0.724-0.084-0.72-0.102-0.713-0.119-0.708-0.137-0.702-0.154-0.695-0.172-0.688-0.188-0.682-0.205-0.674-0.221-0.667-0.238-0.659-0.253-0.652-0.269-0.643-0.285-0.635-0.299-0.626-0.315-0.618-0.329-0.609-0.344-0.6-0.359-0.59-0.372-0.58-0.386-0.571-0.4-0.56-0.413-0.55-0.426-0.54-0.44-0.528-0.452-0.518-0.464-0.507-0.477-0.495-0.488-0.483-0.5-0.472-0.512-0.459-0.524-0.447-0.534-0.434-0.545-0.422-0.556-0.409-0.566-0.395-0.577-0.382-0.586-0.368-0.596-0.354-0.606-0.34-0.615-0.326-0.624-0.311-0.633-0.297-0.641-0.281-0.65-0.266-0.658-0.25-0.666-0.235-0.674-0.219-0.68-0.202-0.689-0.186-0.695-0.17-0.702-0.152-0.708-0.136-0.714-0.118-0.721-0.106-0.767-0.066-2.102 1.999-0.063 0.064 2.049-9e-3 -0.105 0.098 0.701-4e-3 -0.024 0.114 0.696-4e-3 -0.025 0.13 0.69-5e-3 -0.024 0.148 0.684-6e-3 -0.024 0.164 0.678-6e-3 -0.024 0.18 0.671-7e-3 -0.023 0.196 0.664-8e-3 -0.023 0.212 0.657-8e-3 -0.023 0.226 0.65-8e-3 -0.023 0.242 0.643-9e-3 -0.022 0.257 0.635-0.01-0.022 0.272 0.627-0.01-0.022 0.286 0.619-0.01-0.022 0.3 0.612-0.011-0.022 0.315 0.603-0.011-0.022 0.328 0.594-0.012-0.021 0.342 0.585-0.012-0.02 0.355 0.576-0.012-0.021 0.368 0.567-0.013-0.02 0.382 0.557-0.014-0.02 0.395 0.547-0.014-0.019 0.407 0.537-0.015-0.019 0.42 0.526-0.015-0.018 0.431 0.516-0.015-0.018 0.444 0.505-0.016-0.018 0.455 0.495-0.016-0.017 0.466 0.483-0.016-0.017 0.478 0.472-0.017-0.017 0.489 0.46-0.018-0.016 0.5 0.449-0.018-0.016 0.511 0.436-0.019-0.015 0.521 0.424-0.019-0.015 0.532 0.412-0.02-0.015 0.541 0.399-0.019-0.014 0.551 0.386-0.02-0.014 0.56 0.373-0.02-0.013 0.569 0.359-0.02-0.012 0.579 0.346-0.021-0.013 0.587 0.332-0.021-0.011 0.596 0.318-0.022-0.012 0.605 0.304-0.022-0.011 0.613 0.289-0.023-0.01 0.621 0.275-0.023-0.01 0.629 0.26-0.023-0.01 0.636 0.245-0.023-9e-3 0.643 0.229-0.023-8e-3 0.65 0.214-0.024-8e-3 0.658 0.198-0.024-7e-3 0.664 0.182-0.025-7e-3 0.671 0.166-0.025-6e-3 0.677 0.149-0.025-5e-3 0.683 0.132-0.025-4e-3 0.689 0.115-0.025-4e-3 0.694 0.098-0.025-3e-3 0.699 0.081-0.025-3e-3 0.705 0.063-0.026-2e-3 0.71 0.046-0.026-1e-3 0.715 0.027-0.026-1e-3 0.719 0.01h-0.026l0.719-0.01-0.025 1e-3 0.714-0.027-0.026 1e-3 0.71-0.046-0.026 2e-3 0.705-0.063-0.025 3e-3 0.699-0.081-0.025 3e-3 0.694-0.098-0.025 4e-3 0.689-0.115-0.025 4e-3 0.683-0.132-0.025 5e-3 0.677-0.149-0.025 6e-3 0.671-0.166-0.025 7e-3 0.665-0.182-0.025 7e-3 0.658-0.198-0.024 8e-3 0.651-0.214-0.024 8e-3 0.643-0.229-0.023 9e-3 0.636-0.245-0.023 0.01 0.629-0.26-0.023 0.01 0.621-0.275-0.022 0.01 0.612-0.289-0.022 0.011 0.605-0.304-0.022 0.012 0.597-0.318-0.022 0.011 0.588-0.332-0.021 0.013 0.578-0.346-0.02 0.012 0.569-0.359-0.02 0.013 0.56-0.373-0.02 0.014 0.551-0.386-0.019 0.014 0.541-0.399-0.019 0.015 0.531-0.412-0.019 0.015 0.521-0.424-0.018 0.015 0.51-0.436-0.018 0.016 0.5-0.449-0.017 0.016 0.489-0.46-0.017 0.017 0.478-0.472-0.017 0.017 0.467-0.483-0.017 0.017 0.456-0.495-0.016 0.018 0.443-0.505-0.015 0.018 0.432-0.516-0.016 0.018 0.42-0.526-0.015 0.019 0.408-0.537-0.015 0.019 0.395-0.547-0.014 0.02 0.382-0.557-0.013 0.02 0.369-0.567-0.013 0.021 0.355-0.576-0.012 0.02 0.342-0.585-0.012 0.021 0.329-0.594-0.012 0.022 0.315-0.603-0.011 0.022 0.3-0.612-0.01 0.022 0.286-0.619-0.01 0.022 0.272-0.627-0.01 0.022 0.257-0.635-9e-3 0.022 0.242-0.643-8e-3 0.023 0.227-0.65-8e-3 0.023 0.211-0.657-7e-3 0.023 0.195-0.664-6e-3 0.023 0.179-0.671-6e-3 0.024 0.164-0.678-6e-3 0.024 0.148-0.684-5e-3 0.024 0.131-0.69-5e-3 0.025 0.114-0.696-3e-3 0.024 0.097-0.701-3e-3 0.024 0.08-0.707-3e-3 0.025 0.063-0.712-2e-3 0.025 0.045-0.717-1e-3 0.025 0.027-0.723-1e-3 0.026 9e-3 -0.727v0.024l-8e-3 -0.688 1e-3 0.024-0.025-0.685 1e-3 0.024-0.04-0.68 2e-3 0.023-0.057-0.675 3e-3 0.023-0.072-0.671 3e-3 0.024-0.088-0.667 3e-3 0.024-0.102-0.662 4e-3 0.024-0.118-0.657 4e-3 0.024-0.132-0.651 5e-3 0.023-0.148-0.645 6e-3 0.022-0.162-0.639 6e-3 0.023-0.176-0.634 6e-3 0.022-0.19-0.627 7e-3 0.022-0.204-0.621 7e-3 0.022-0.218-0.614 8e-3 0.021-0.232-0.607 9e-3 0.021-0.246-0.601 9e-3 0.021-0.258-0.594 9e-3 0.021-0.271-0.586 0.01 0.02-0.285-0.579 0.011 0.021-0.297-0.572 0.01 0.02-0.309-0.564 0.011 0.02-0.322-0.556 0.012 0.02-0.334-0.548 0.012 0.02-0.346-0.539 0.012 0.019-0.357-0.531 0.013 0.019-0.369-0.522 0.013 0.018-0.381-0.513 0.014 0.018-0.392-0.504 0.014 0.018-0.403-0.494 0.015 0.017-0.414-0.485 0.015 0.017-0.424-0.475 0.015 0.016-0.435-0.465 0.016 0.016-0.445-0.455 0.016 0.016-0.455-0.445 0.016 0.016-0.464-0.435 0.016 0.015-0.474-0.424 0.017 0.015-0.484-0.413 0.017 0.015-0.493-0.402 0.017 0.014-0.502-0.391 0.018 0.014-0.512-0.38 0.019 0.014-0.521-0.368 0.019 0.013-0.529-0.356 0.019 0.012-0.537-0.344 0.02 0.012-0.546-0.332 0.02 0.012-0.554-0.32 0.02 0.011-0.561-0.307 0.02 0.011-0.569-0.294 0.021 0.01-0.577-0.282 0.021 0.01-0.584-0.268 0.022 9e-3 -0.591-0.255 0.021 9e-3 -0.597-0.242 0.021 9e-3 -0.604-0.228 0.022 8e-3 -0.611-0.215 0.022 8e-3 -0.617-0.2 0.022 7e-3 -0.623-0.186 0.023 6e-3 -0.63-0.171 0.023 6e-3 -0.636-0.158 0.024 6e-3 -0.641-0.142 0.023 4e-3 -0.647-0.127 0.024 4e-3 -0.652-0.112 0.024 4e-3 -0.657-0.097 0.024 3e-3 -0.661-0.081 0.023 3e-3 -0.666-0.066 0.196-1.99"
           fill="#909"
           id="path287" />
        <path
           d="m555.18 104.2 2.999-0.058 2.999-0.059-2.882 6.058zm-27.651 32.49-0.666-0.078-0.674-0.095-0.669-0.111-0.663-0.126-0.659-0.142-0.652-0.156-0.647-0.171-0.64-0.186-0.635-0.2-0.628-0.215-0.622-0.228-0.614-0.243-0.608-0.256-0.601-0.269-0.593-0.283-0.586-0.296-0.578-0.309-0.571-0.322-0.562-0.334-0.554-0.347-0.545-0.358-0.537-0.371-0.528-0.382-0.519-0.394-0.51-0.406-0.501-0.416-0.491-0.428-0.481-0.439-0.472-0.449-0.461-0.46-0.451-0.469-0.44-0.48-0.43-0.49-0.42-0.5-0.408-0.509-0.396-0.519-0.386-0.528-0.374-0.536-0.362-0.546-0.351-0.554-0.338-0.563-0.326-0.57-0.313-0.579-0.301-0.587-0.288-0.594-0.274-0.602-0.262-0.61-0.248-0.616-0.235-0.623-0.221-0.63-0.206-0.636-0.193-0.643-0.178-0.649-0.164-0.655-0.149-0.661-0.134-0.666-0.119-0.672-0.104-0.677-0.088-0.681-0.073-0.687-0.057-0.691-0.041-0.696-0.024-0.699-9e-3 -0.704 0.01-0.752 0.028-0.747 0.046-0.742 0.065-0.737 0.083-0.732 0.101-0.726 0.118-0.721 0.135-0.715 0.153-0.708 0.169-0.702 0.186-0.695 0.203-0.688 0.218-0.681 0.235-0.674 0.251-0.665 0.266-0.658 0.281-0.65 0.296-0.642 0.311-0.632 0.326-0.624 0.34-0.615 0.354-0.606 0.368-0.596 0.382-0.587 0.396-0.576 0.408-0.566 0.422-0.556 0.434-0.545 0.447-0.535 0.46-0.523 0.471-0.512 0.484-0.5 0.495-0.489 0.506-0.477 0.518-0.464 0.529-0.452 0.539-0.439 0.55-0.426 0.561-0.414 0.57-0.399 0.581-0.386 0.59-0.373 0.599-0.358 0.609-0.344 0.618-0.33 0.626-0.314 0.636-0.3 0.643-0.284 0.651-0.269 0.66-0.254 0.667-0.237 0.674-0.221 0.681-0.205 0.689-0.189 0.695-0.171 0.701-0.154 0.708-0.137 0.714-0.12 0.719-0.102 0.725-0.084 0.73-0.065 0.735-0.047 0.74-0.029 0.744-9e-3 0.745 9e-3 0.74 0.029 0.735 0.047 0.73 0.065 0.725 0.084 0.719 0.102 0.714 0.12 0.708 0.137 0.701 0.154 0.695 0.171 0.689 0.189 0.681 0.205 0.674 0.221 0.667 0.237 0.66 0.254 0.651 0.269 0.643 0.284 0.636 0.3 0.626 0.314 0.618 0.33 0.609 0.344 0.599 0.358 0.59 0.373 0.581 0.386 0.57 0.399 0.561 0.414 0.55 0.426 0.539 0.439 0.529 0.452 0.518 0.464 0.506 0.477 0.495 0.489 0.484 0.5 0.471 0.512 0.46 0.523 0.447 0.535 0.434 0.545 0.422 0.556 0.408 0.566 0.396 0.576 0.381 0.587 0.369 0.596 0.354 0.606 0.34 0.615 0.326 0.624 0.311 0.632 0.296 0.642 0.281 0.65 0.266 0.658 0.251 0.665 0.235 0.674 0.218 0.681 0.203 0.688 0.186 0.695 0.169 0.702 0.153 0.708 0.135 0.715 0.118 0.721 0.107 0.771 0.034 1.587-1.999 0.043-0.033-1.529 9e-3 0.116-0.097-0.702 4e-3 0.025-0.114-0.696 4e-3 0.024-0.131-0.69 5e-3 0.024-0.147-0.684 5e-3 0.024-0.163-0.677 6e-3 0.023-0.18-0.671 7e-3 0.024-0.196-0.665 7e-3 0.024-0.211-0.658 8e-3 0.024-0.227-0.651 9e-3 0.023-0.242-0.643 9e-3 0.023-0.257-0.635 9e-3 0.022-0.271-0.628 9e-3 0.023-0.286-0.62 0.011 0.022-0.301-0.611 0.011 0.021-0.314-0.602 0.011 0.021-0.328-0.594 0.011 0.021-0.342-0.585 0.013 0.021-0.356-0.576 0.013 0.02-0.369-0.566 0.013 0.02-0.381-0.557 0.013 0.019-0.394-0.546 0.014 0.019-0.407-0.537 0.014 0.019-0.419-0.527 0.015 0.019-0.432-0.516 0.016 0.018-0.444-0.506 0.016 0.018-0.455-0.494 0.016 0.017-0.467-0.483 0.017 0.017-0.478-0.472 0.017 0.016-0.489-0.46 0.018 0.016-0.5-0.448 0.018 0.016-0.511-0.437 0.018 0.016-0.521-0.424 0.019 0.014-0.531-0.411 0.019 0.014-0.541-0.399 0.02 0.015-0.551-0.386 0.02 0.013-0.561-0.373 0.021 0.014-0.57-0.36 0.021 0.013-0.579-0.346 0.021 0.012-0.587-0.332 0.021 0.012-0.596-0.318 0.021 0.011-0.604-0.303 0.022 0.01-0.613-0.289 0.022 0.01-0.62-0.274 0.022 9e-3 -0.628-0.259 0.023 9e-3 -0.636-0.244 0.023 8e-3 -0.644-0.229 0.024 8e-3 -0.651-0.213 0.024 7e-3 -0.657-0.197 0.024 6e-3 -0.664-0.181 0.024 6e-3 -0.67-0.165 0.024 5e-3 -0.677-0.148 0.025 5e-3 -0.683-0.133 0.025 5e-3 -0.688-0.115 0.025 4e-3 -0.694-0.099 0.025 4e-3 -0.7-0.081 0.026 2e-3 -0.705-0.063 0.025 2e-3 -0.709-0.045 0.025 1e-3 -0.714-0.028 0.026 1e-3 -0.719-9e-3h0.025l-0.719 9e-3 0.026-1e-3 -0.714 0.028 0.025-1e-3 -0.709 0.045 0.025-2e-3 -0.705 0.063 0.026-2e-3 -0.7 0.081 0.025-4e-3 -0.694 0.099 0.025-4e-3 -0.688 0.115 0.025-5e-3 -0.683 0.133 0.025-5e-3 -0.677 0.148 0.024-5e-3 -0.67 0.165 0.024-6e-3 -0.664 0.181 0.024-6e-3 -0.657 0.197 0.024-7e-3 -0.651 0.213 0.024-8e-3 -0.644 0.229 0.023-8e-3 -0.636 0.244 0.023-9e-3 -0.628 0.259 0.022-9e-3 -0.62 0.274 0.022-0.01-0.613 0.289 0.022-0.01-0.604 0.303 0.021-0.011-0.596 0.318 0.021-0.012-0.587 0.332 0.021-0.012-0.579 0.346 0.021-0.013-0.57 0.36 0.021-0.014-0.561 0.373 0.02-0.013-0.551 0.386 0.02-0.015-0.541 0.399 0.019-0.014-0.531 0.411 0.019-0.014-0.521 0.424 0.018-0.016-0.511 0.437 0.018-0.016-0.5 0.448 0.018-0.016-0.489 0.46 0.017-0.016-0.478 0.472 0.017-0.017-0.467 0.483 0.016-0.017-0.455 0.494 0.016-0.018-0.444 0.506 0.016-0.018-0.432 0.516 0.015-0.019-0.419 0.527 0.014-0.019-0.407 0.537 0.014-0.019-0.394 0.546 0.013-0.019-0.381 0.557 0.013-0.02-0.369 0.566 0.013-0.02-0.356 0.576 0.013-0.021-0.343 0.585 0.012-0.021-0.328 0.594 0.011-0.021-0.314 0.602 0.011-0.021-0.301 0.611 0.011-0.022-0.287 0.62 0.01-0.023-0.271 0.628 9e-3 -0.022-0.257 0.635 9e-3 -0.023-0.242 0.643 9e-3 -0.023-0.227 0.651 8e-3 -0.024-0.211 0.658 7e-3 -0.024-0.196 0.665 7e-3 -0.024-0.18 0.671 6e-3 -0.023-0.163 0.677 5e-3 -0.024-0.147 0.684 5e-3 -0.024-0.131 0.69 4e-3 -0.024-0.114 0.696 4e-3 -0.025-0.097 0.702 3e-3 -0.025-0.08 0.707 2e-3 -0.025-0.062 0.713 2e-3 -0.025-0.045 0.717 1e-3 -0.025-0.027 0.722 1e-3 -0.025-0.01 0.727v-0.025l8e-3 0.681v-0.024l0.024 0.676-1e-3 -0.023 0.039 0.672-2e-3 -0.023 0.055 0.668-2e-3 -0.024 0.07 0.664-2e-3 -0.024 0.085 0.659-3e-3 -0.023 0.1 0.654-4e-3 -0.023 0.115 0.648-4e-3 -0.022 0.129 0.643-5e-3 -0.023 0.144 0.638-5e-3 -0.022 0.158 0.632-6e-3 -0.022 0.172 0.627-6e-3 -0.022 0.186 0.62-7e-3 -0.022 0.2 0.615-7e-3 -0.022 0.213 0.609-8e-3 -0.022 0.227 0.602-9e-3 -0.021 0.24 0.595-9e-3 -0.021 0.253 0.588-9e-3 -0.021 0.265 0.582-0.01-0.021 0.278 0.574-0.01-0.02 0.291 0.566-0.011-0.02 0.303 0.559-0.011-0.019 0.315 0.551-0.012-0.019 0.327 0.543-0.012-0.019 0.338 0.535-0.012-0.019 0.35 0.527-0.013-0.019 0.362 0.519-0.013-0.018 0.372 0.509-0.013-0.018 0.383 0.501-0.014-0.017 0.394 0.491-0.014-0.017 0.405 0.483-0.015-0.017 0.415 0.473-0.014-0.017 0.425 0.464-0.015-0.016 0.435 0.454-0.015-0.016 0.445 0.444-0.016-0.016 0.455 0.434-0.016-0.015 0.465 0.423-0.017-0.015 0.474 0.413-0.017-0.014 0.484 0.402-0.018-0.014 0.492 0.391-0.017-0.014 0.501 0.381-0.018-0.014 0.51 0.37-0.019-0.013 0.519 0.357-0.019-0.012 0.526 0.346-0.019-0.012 0.535 0.334-0.019-0.011 0.542 0.322-0.019-0.011 0.55 0.31-0.02-0.011 0.558 0.298-0.02-0.01 0.565 0.285-0.02-0.01 0.572 0.273-0.021-9e-3 0.58 0.26-0.021-9e-3 0.586 0.247-0.021-9e-3 0.593 0.234-0.022-8e-3 0.6 0.22-0.022-8e-3 0.606 0.207-0.022-7e-3 0.612 0.193-0.022-7e-3 0.618 0.18-0.023-7e-3 0.624 0.166-0.023-6e-3 0.63 0.151-0.023-5e-3 0.635 0.136-0.023-5e-3 0.64 0.122-0.023-4e-3 0.645 0.107-0.023-4e-3 0.65 0.092-0.024-3e-3 0.655 0.077-0.233 1.986"
           fill="#909"
           id="path289" />
        <path
           d="m343.59 488.87-2.894 0.791-2.894 0.79 1.313-6.578zm25.501-38.609 0.679 0.067 0.685 0.084 0.681 0.1 0.675 0.116 0.67 0.132 0.665 0.148 0.658 0.163 0.653 0.178 0.647 0.193 0.64 0.207 0.633 0.222 0.627 0.237 0.619 0.25 0.613 0.265 0.605 0.278 0.597 0.292 0.59 0.305 0.581 0.318 0.574 0.332 0.565 0.344 0.557 0.356 0.548 0.369 0.539 0.381 0.53 0.393 0.52 0.405 0.511 0.417 0.502 0.427 0.491 0.439 0.481 0.45 0.472 0.461 0.46 0.472 0.45 0.481 0.44 0.493 0.428 0.502 0.417 0.512 0.406 0.521 0.394 0.531 0.382 0.541 0.37 0.549 0.358 0.558 0.346 0.567 0.333 0.576 0.321 0.584 0.308 0.591 0.294 0.6 0.281 0.608 0.268 0.615 0.254 0.622 0.24 0.63 0.226 0.636 0.211 0.643 0.197 0.65 0.183 0.656 0.168 0.662 0.152 0.668 0.138 0.674 0.121 0.679 0.107 0.685 0.09 0.689 0.075 0.695 0.058 0.699 0.042 0.704 0.025 0.708 8e-3 0.713-9e-3 0.751-0.028 0.747-0.047 0.742-0.065 0.738-0.082 0.732-0.101 0.726-0.118 0.72-0.136 0.715-0.152 0.708-0.17 0.702-0.186 0.695-0.202 0.689-0.219 0.68-0.235 0.674-0.25 0.666-0.266 0.658-0.281 0.65-0.296 0.641-0.312 0.633-0.325 0.624-0.34 0.615-0.355 0.606-0.368 0.596-0.382 0.586-0.395 0.577-0.409 0.566-0.421 0.556-0.435 0.545-0.447 0.534-0.459 0.524-0.472 0.512-0.483 0.5-0.495 0.488-0.507 0.477-0.517 0.464-0.529 0.452-0.54 0.44-0.55 0.426-0.56 0.413-0.571 0.4-0.58 0.386-0.59 0.372-0.6 0.359-0.609 0.344-0.617 0.329-0.627 0.315-0.635 0.299-0.643 0.285-0.652 0.269-0.659 0.253-0.667 0.238-0.674 0.221-0.682 0.205-0.688 0.188-0.695 0.172-0.702 0.154-0.707 0.137-0.714 0.119-0.719 0.102-0.725 0.084-0.73 0.066-0.736 0.047-0.739 0.028-0.744 0.01-0.671-8e-3 -0.667-0.023-0.663-0.038-0.658-0.054-0.655-0.068-0.65-0.082-0.646-0.098-0.641-0.111-0.636-0.126-0.632-0.14-0.626-0.153-0.62-0.167-0.615-0.181-0.609-0.194-0.603-0.207-0.598-0.221-0.591-0.233-0.584-0.245-0.578-0.258-0.571-0.271-0.565-0.282-0.557-0.295-0.55-0.306-0.543-0.318-0.535-0.33-0.527-0.341-0.519-0.351-0.516-0.366-0.993-0.755-0.964-0.8-0.928-0.84-0.891-0.879-0.852-0.918-0.814-0.953-0.773-0.989-0.727-1.019-0.352-0.528-0.338-0.532-0.327-0.539-0.316-0.547-0.304-0.555-0.293-0.562-0.28-0.569-0.269-0.576-0.256-0.583-0.261-0.631-0.497-1.721 1.922-0.555 0.481 1.668-0.037-0.105 0.236 0.569-9e-3 -0.02 0.248 0.563-9e-3 -0.02 0.259 0.556-0.01-0.02 0.271 0.55-9e-3 -0.02 0.282 0.543-0.01-0.019 0.293 0.535-0.01-0.018 0.305 0.528-0.011-0.019 0.315 0.521-0.011-0.018 0.327 0.514-0.012-0.019 0.337 0.506-0.018-0.026 0.705 0.988-0.025-0.035 0.746 0.955-0.027-0.033 0.785 0.921-0.028-0.032 0.823 0.886-0.029-0.031 0.86 0.849-0.031-0.029 0.896 0.811-0.033-0.028 0.931 0.772-0.034-0.027 0.963 0.732-0.026-0.019 0.494 0.35-0.018-0.012 0.501 0.34-0.018-0.012 0.509 0.329-0.019-0.012 0.517 0.318-0.019-0.011 0.524 0.307-0.019-0.011 0.531 0.295-0.02-0.01 0.538 0.284-0.019-0.01 0.544 0.273-0.02-0.01 0.552 0.261-0.021-9e-3 0.558 0.249-0.02-9e-3 0.564 0.237-0.021-8e-3 0.57 0.225-0.02-8e-3 0.576 0.212-0.021-7e-3 0.582 0.2-0.021-7e-3 0.587 0.187-0.021-7e-3 0.593 0.175-0.022-7e-3 0.599 0.162-0.022-6e-3 0.604 0.148-0.022-5e-3 0.609 0.135-0.023-5e-3 0.614 0.122-0.022-5e-3 0.618 0.108-0.022-4e-3 0.623 0.094-0.023-3e-3 0.628 0.08-0.023-3e-3 0.632 0.066-0.023-2e-3 0.636 0.051-0.023-1e-3 0.64 0.036-0.023-1e-3 0.643 0.023-0.023-1e-3 0.648 8e-3h-0.025l0.719-0.01-0.025 1e-3 0.714-0.027-0.026 1e-3 0.71-0.046-0.025 2e-3 0.704-0.063-0.025 3e-3 0.699-0.081-0.025 3e-3 0.694-0.098-0.025 4e-3 0.689-0.115-0.025 4e-3 0.683-0.132-0.025 5e-3 0.677-0.149-0.025 6e-3 0.671-0.166-0.025 7e-3 0.665-0.182-0.025 7e-3 0.658-0.198-0.024 8e-3 0.651-0.214-0.024 8e-3 0.644-0.229-0.024 9e-3 0.636-0.245-0.023 0.01 0.629-0.26-0.023 0.01 0.621-0.275-0.022 0.01 0.612-0.289-0.022 0.011 0.605-0.304-0.022 0.012 0.597-0.318-0.022 0.011 0.588-0.332-0.021 0.012 0.578-0.345-0.02 0.012 0.569-0.359-0.02 0.013 0.56-0.373-0.02 0.014 0.551-0.386-0.019 0.014 0.541-0.399-0.019 0.015 0.531-0.412-0.019 0.015 0.521-0.424-0.018 0.015 0.51-0.436-0.018 0.016 0.5-0.449-0.017 0.016 0.489-0.46-0.017 0.017 0.478-0.472-0.017 0.017 0.467-0.483-0.017 0.017 0.456-0.495-0.016 0.018 0.443-0.505-0.015 0.018 0.432-0.516-0.016 0.018 0.42-0.526-0.015 0.019 0.408-0.537-0.015 0.019 0.395-0.547-0.014 0.02 0.382-0.557-0.013 0.02 0.369-0.567-0.013 0.021 0.355-0.576-0.012 0.02 0.342-0.585-0.012 0.021 0.329-0.594-0.012 0.022 0.315-0.603-0.011 0.022 0.3-0.612-0.01 0.022 0.286-0.619-0.01 0.022 0.272-0.627-0.01 0.022 0.257-0.635-9e-3 0.022 0.242-0.643-8e-3 0.023 0.227-0.65-8e-3 0.023 0.211-0.657-7e-3 0.023 0.195-0.664-6e-3 0.023 0.179-0.671-6e-3 0.024 0.164-0.678-6e-3 0.024 0.148-0.684-5e-3 0.024 0.131-0.69-5e-3 0.025 0.114-0.696-3e-3 0.024 0.097-0.701-3e-3 0.024 0.08-0.707-3e-3 0.025 0.063-0.712-2e-3 0.025 0.045-0.717-1e-3 0.024 0.027-0.722-1e-3 0.026 9e-3 -0.727v0.024l-8e-3 -0.688 1e-3 0.024-0.025-0.685 1e-3 0.024-0.04-0.68 2e-3 0.023-0.057-0.675 3e-3 0.023-0.072-0.671 3e-3 0.024-0.088-0.667 4e-3 0.024-0.103-0.662 4e-3 0.024-0.118-0.657 4e-3 0.024-0.132-0.651 5e-3 0.023-0.148-0.645 6e-3 0.022-0.162-0.639 6e-3 0.023-0.176-0.634 6e-3 0.022-0.19-0.627 7e-3 0.022-0.204-0.621 7e-3 0.022-0.218-0.614 8e-3 0.021-0.232-0.608 9e-3 0.022-0.246-0.601 9e-3 0.021-0.258-0.594 9e-3 0.021-0.271-0.586 0.01 0.02-0.285-0.579 0.011 0.021-0.297-0.572 0.01 0.02-0.309-0.564 0.011 0.02-0.322-0.556 0.012 0.02-0.334-0.548 0.012 0.02-0.346-0.539 0.012 0.018-0.357-0.53 0.013 0.019-0.369-0.522 0.013 0.018-0.381-0.513 0.014 0.018-0.392-0.504 0.014 0.018-0.403-0.494 0.015 0.017-0.414-0.485 0.015 0.017-0.424-0.475 0.015 0.016-0.435-0.465 0.016 0.016-0.445-0.455 0.016 0.016-0.455-0.445 0.016 0.016-0.464-0.435 0.016 0.015-0.474-0.424 0.017 0.015-0.484-0.413 0.017 0.015-0.493-0.402 0.017 0.014-0.502-0.391 0.018 0.014-0.512-0.38 0.019 0.014-0.521-0.368 0.019 0.013-0.529-0.356 0.019 0.012-0.537-0.344 0.02 0.012-0.546-0.332 0.02 0.012-0.554-0.32 0.02 0.011-0.561-0.307 0.02 0.011-0.569-0.294 0.021 0.01-0.577-0.282 0.021 0.01-0.583-0.268 0.021 9e-3 -0.591-0.255 0.021 9e-3 -0.597-0.242 0.021 9e-3 -0.604-0.228 0.022 8e-3 -0.611-0.215 0.022 8e-3 -0.617-0.2 0.022 7e-3 -0.623-0.186 0.023 6e-3 -0.63-0.171 0.023 6e-3 -0.636-0.158 0.024 6e-3 -0.641-0.142 0.023 4e-3 -0.646-0.127 0.023 4e-3 -0.652-0.112 0.024 4e-3 -0.657-0.097 0.024 3e-3 -0.661-0.081 0.024 3e-3 -0.667-0.066 0.196-1.99"
           fill="#f00"
           id="path291" />
        <g
           clip-path="url(#b)"
           id="g295">
          <path
             d="m260.7 395.46 6.354-3.984 0.807 8.346zm-6.732 43.133-0.649 0.271-0.672 0.261-0.679 0.245-0.687 0.228-0.694 0.211-0.702 0.194-0.708 0.177-0.715 0.159-0.721 0.141-0.727 0.123-0.733 0.105-0.739 0.086-0.744 0.068-0.749 0.048-0.755 0.029-0.758 0.01-0.751-9e-3 -0.746-0.029-0.742-0.047-0.737-0.067-0.731-0.084-0.725-0.103-0.72-0.12-0.714-0.139-0.708-0.155-0.701-0.173-0.695-0.19-0.687-0.207-0.68-0.223-0.673-0.24-0.665-0.255-0.657-0.272-0.649-0.287-0.641-0.302-0.632-0.317-0.623-0.333-0.614-0.347-0.605-0.361-0.595-0.376-0.586-0.389-0.575-0.403-0.565-0.417-0.555-0.43-0.544-0.443-0.534-0.456-0.522-0.468-0.511-0.481-0.499-0.493-0.488-0.504-0.475-0.517-0.463-0.527-0.451-0.539-0.438-0.55-0.426-0.561-0.412-0.571-0.398-0.581-0.386-0.592-0.371-0.601-0.357-0.611-0.343-0.62-0.329-0.629-0.314-0.639-0.298-0.647-0.284-0.655-0.268-0.664-0.253-0.671-0.237-0.679-0.22-0.687-0.204-0.694-0.188-0.701-0.171-0.708-0.154-0.715-0.136-0.72-0.12-0.727-0.101-0.733-0.083-0.738-0.066-0.743-0.047-0.749-0.028-0.753-9e-3 -0.758 9e-3 -0.758 0.028-0.753 0.047-0.749 0.066-0.743 0.083-0.738 0.101-0.733 0.12-0.726 0.136-0.721 0.154-0.714 0.171-0.708 0.188-0.701 0.204-0.694 0.22-0.687 0.237-0.679 0.253-0.672 0.268-0.664 0.284-0.655 0.298-0.647 0.314-0.638 0.329-0.63 0.343-0.62 0.357-0.611 0.371-0.601 0.386-0.591 0.398-0.582 0.412-0.571 0.426-0.561 0.438-0.549 0.451-0.539 0.463-0.528 0.475-0.516 0.488-0.505 0.499-0.493 0.511-0.481 0.522-0.468 0.534-0.456 0.544-0.443 0.555-0.43 0.565-0.416 0.575-0.404 0.586-0.389 0.595-0.376 0.605-0.361 0.614-0.347 0.623-0.332 0.632-0.318 0.641-0.302 0.649-0.287 0.657-0.271 0.665-0.256 0.673-0.24 0.68-0.223 0.687-0.206 0.695-0.19 0.701-0.173 0.708-0.156 0.714-0.138 0.72-0.121 0.725-0.103 0.731-0.084 0.737-0.066 0.742-0.048 0.746-0.028 0.748-0.01 0.552 5e-3 0.552 0.016 1.081 0.06 1.075 0.101 1.064 0.14 1.052 0.178 1.038 0.216 1.025 0.253 1.011 0.289 0.995 0.324 0.979 0.36 0.962 0.393 0.945 0.426 0.927 0.459 0.907 0.491 0.889 0.522 0.867 0.552 0.847 0.582 0.825 0.61 0.803 0.639 0.779 0.666 0.756 0.693 0.731 0.719 0.706 0.744 0.724 0.819 1.292 1.963-2.088 1.375-1.244-1.889 0.108 0.141-0.651-0.736 0.03 0.032-0.676-0.713 0.03 0.031-0.7-0.688 0.032 0.03-0.723-0.664 0.032 0.029-0.746-0.637 0.034 0.027-0.768-0.611 0.034 0.027-0.789-0.585 0.035 0.026-0.81-0.557 0.037 0.024-0.831-0.528 0.038 0.023-0.85-0.499 0.039 0.022-0.869-0.47 0.04 0.021-0.886-0.439 0.04 0.019-0.904-0.408 0.042 0.018-0.921-0.376 0.042 0.016-0.936-0.344 0.043 0.015-0.952-0.31 0.044 0.013-0.966-0.276 0.044 0.012-0.98-0.242 0.045 0.01-0.993-0.206 0.045 8e-3 -1.006-0.17 0.046 7e-3 -1.018-0.134 0.047 5e-3 -1.029-0.096 0.046 3e-3 -1.039-0.058 0.035 1e-3 -0.524-0.014h0.024l-0.526-5e-3h0.028l-0.719 9e-3 0.032-1e-3 -0.715 0.028 0.032-2e-3 -0.709 0.046 0.032-3e-3 -0.705 0.064 0.032-4e-3 -0.7 0.081 0.032-4e-3 -0.695 0.098 0.032-5e-3 -0.689 0.116 0.031-6e-3 -0.682 0.132 0.03-6e-3 -0.676 0.149 0.03-7e-3 -0.67 0.165 0.03-8e-3 -0.664 0.182 0.03-9e-3 -0.657 0.198 0.03-0.01-0.651 0.214 0.03-0.01-0.644 0.229 0.029-0.011-0.636 0.245 0.029-0.012-0.629 0.26 0.029-0.012-0.621 0.274 0.028-0.013-0.613 0.29 0.028-0.014-0.605 0.304 0.027-0.014-0.596 0.318 0.027-0.015-0.588 0.332 0.026-0.015-0.578 0.346 0.025-0.016-0.569 0.359 0.025-0.016-0.56 0.372 0.025-0.017-0.551 0.386 0.024-0.017-0.541 0.399 0.024-0.018-0.531 0.411 0.024-0.018-0.521 0.424 0.023-0.019-0.511 0.436 0.022-0.02-0.499 0.449 0.021-0.021-0.489 0.461 0.022-0.021-0.478 0.472 0.021-0.021-0.467 0.483 0.02-0.022-0.455 0.495 0.02-0.023-0.444 0.506 0.02-0.023-0.432 0.516 0.019-0.023-0.42 0.527 0.019-0.024-0.408 0.537 0.018-0.024-0.395 0.547 0.018-0.025-0.382 0.557 0.016-0.025-0.368 0.567 0.016-0.026-0.356 0.576 0.016-0.026-0.343 0.585 0.015-0.026-0.328 0.594 0.014-0.026-0.315 0.602 0.014-0.027-0.3 0.611 0.013-0.027-0.286 0.62 0.012-0.028-0.272 0.627 0.012-0.028-0.257 0.636 0.011-0.029-0.241 0.643 0.01-0.028-0.227 0.65 0.01-0.029-0.211 0.657 9e-3 -0.029-0.196 0.665 9e-3 -0.03-0.18 0.671 7e-3 -0.03-0.163 0.678 7e-3 -0.03-0.148 0.684 7e-3 -0.03-0.131 0.69 5e-3 -0.031-0.114 0.696 5e-3 -0.03-0.097 0.701 3e-3 -0.031-0.08 0.707 4e-3 -0.031-0.063 0.713 2e-3 -0.031-0.045 0.717 2e-3 -0.031-0.027 0.722 1e-3 -0.032-9e-3 0.727v-0.031l9e-3 0.726-1e-3 -0.031 0.027 0.722-2e-3 -0.031 0.045 0.717-2e-3 -0.031 0.063 0.712-4e-3 -0.031 0.08 0.707-3e-3 -0.031 0.097 0.702-5e-3 -0.031 0.114 0.696-5e-3 -0.031 0.131 0.691-7e-3 -0.031 0.148 0.684-7e-3 -0.03 0.163 0.678-7e-3 -0.03 0.18 0.671-9e-3 -0.029 0.196 0.664-9e-3 -0.029 0.211 0.657-0.01-0.029 0.227 0.651-0.01-0.029 0.241 0.643-0.011-0.028 0.257 0.635-0.012-0.028 0.272 0.627-0.012-0.027 0.286 0.619-0.013-0.027 0.3 0.611-0.014-0.027 0.315 0.603-0.014-0.027 0.328 0.594-0.015-0.026 0.343 0.585-0.016-0.026 0.356 0.576-0.016-0.025 0.368 0.566-0.016-0.025 0.382 0.557-0.018-0.025 0.395 0.547-0.018-0.024 0.408 0.537-0.019-0.023 0.42 0.526-0.019-0.023 0.432 0.516-0.02-0.022 0.444 0.505-0.02-0.022 0.455 0.494-0.02-0.021 0.467 0.483-0.021-0.021 0.478 0.471-0.022-0.02 0.489 0.46-0.021-0.02 0.499 0.448-0.022-0.019 0.511 0.436-0.023-0.019 0.521 0.424-0.024-0.019 0.531 0.412-0.024-0.018 0.541 0.399-0.024-0.018 0.551 0.386-0.025-0.017 0.56 0.373-0.025-0.017 0.569 0.36-0.025-0.016 0.578 0.346-0.026-0.016 0.588 0.332-0.027-0.014 0.596 0.318-0.027-0.014 0.605 0.303-0.028-0.013 0.613 0.289-0.028-0.013 0.621 0.275-0.029-0.012 0.629 0.259-0.029-0.011 0.636 0.244-0.029-0.011 0.644 0.23-0.03-0.011 0.651 0.214-0.03-9e-3 0.657 0.197-0.03-8e-3 0.664 0.181-0.03-8e-3 0.67 0.166-0.03-7e-3 0.676 0.148-0.03-6e-3 0.682 0.132-0.031-5e-3 0.689 0.115-0.032-5e-3 0.695 0.098-0.032-4e-3 0.7 0.081-0.032-3e-3 0.705 0.063-0.032-2e-3 0.709 0.045-0.032-2e-3 0.715 0.028-0.032-1e-3 0.719 9e-3h-0.033l0.727-9e-3 -0.032 1e-3 0.721-0.028-0.032 1e-3 0.717-0.046-0.032 2e-3 0.712-0.064-0.032 3e-3 0.707-0.082-0.032 4e-3 0.701-0.1-0.032 4e-3 0.696-0.117-0.031 5e-3 0.689-0.135-0.031 7e-3 0.684-0.152-0.031 7e-3 0.677-0.169-0.031 8e-3 0.671-0.185-0.03 9e-3 0.664-0.202-0.031 9e-3 0.657-0.218-0.029 0.01 0.649-0.233-0.029 0.01 0.642-0.249-0.029 0.012 0.635-0.266 0.964 2.307"
             fill="url(#a)"
             id="path293" />
        </g>
        <text
           transform="translate(324.55,284.95)"
           fill="#990099"
           font-size="18px"
           font-weight="bold"
           xml:space="preserve"
           id="text299"><tspan
             id="tspan297">CPU read miss</tspan></text>
        <text
           transform="translate(324.55,306.55)"
           fill="#000000"
           font-size="18px"
           xml:space="preserve"
           id="text303"><tspan
             id="tspan301">Write back block,</tspan></text>
        <text
           transform="translate(324.55,328.15)"
           fill="#000000"
           font-size="18px"
           xml:space="preserve"
           id="text307"><tspan
             id="tspan305">Place read miss</tspan></text>
        <text
           transform="translate(324.55,349.75)"
           fill="#000000"
           font-size="18px"
           xml:space="preserve"
           id="text311"><tspan
             id="tspan309">on bus</tspan></text>
        <text
           transform="translate(457.1,338.6)"
           fill="#fc0128"
           font-size="18px"
           font-weight="bold"
           xml:space="preserve"
           id="text315"><tspan
             id="tspan313">CPU Write</tspan></text>
        <text
           transform="translate(457.1,360.2)"
           fill="#000000"
           font-size="18px"
           font-weight="bold"
           xml:space="preserve"
           id="text319"><tspan
             id="tspan317">Place Write Miss on Bus</tspan></text>
      </g>
    </g>
  </g>
</svg>
